<svg viewBox="0 0 256.37604 528.8896" xmlns="http://www.w3.org/2000/svg" xmlns:ev="http://www.w3.org/2001/xml-events" xmlns:xlink="http://www.w3.org/1999/xlink">
<g class="graph" id="graph-0">
<g id="a-graph-0">
<a>
<rect fill="transparent" height="528.8896" stroke="transparent" width="256.37604" x="0" y="0"/>
</a>
</g>
</g>
<defs>
<filter height="300%" id="red-glow" width="300%" x="-100%" y="-100%">
<feFlood flood-color="red" flood-opacity="0.5" in="SourceGraphic"/>
<feComposite in2="SourceGraphic" operator="in"/>
<feGaussianBlur stdDeviation="5"/>
<feComponentTransfer result="glow1">
<feFuncA intercept="0" slope="4" type="linear"/>
</feComponentTransfer>
<feMerge>
<feMergeNode in="glow1"/>
<feMergeNode in="SourceGraphic"/>
</feMerge>
</filter>
<filter height="300%" id="green-glow" width="300%" x="-100%" y="-100%">
<feFlood flood-color="green" flood-opacity="0.5" in="SourceGraphic"/>
<feComposite in2="SourceGraphic" operator="in"/>
<feGaussianBlur stdDeviation="5"/>
<feComponentTransfer result="glow1">
<feFuncA intercept="0" slope="4" type="linear"/>
</feComponentTransfer>
<feMerge>
<feMergeNode in="glow1"/>
<feMergeNode in="SourceGraphic"/>
</feMerge>
</filter>
<filter height="300%" id="orange-glow" width="300%" x="-100%" y="-100%">
<feFlood flood-color="orange" flood-opacity="0.5" in="SourceGraphic"/>
<feComposite in2="SourceGraphic" operator="in"/>
<feGaussianBlur stdDeviation="5"/>
<feComponentTransfer result="glow1">
<feFuncA intercept="0" slope="4" type="linear"/>
</feComponentTransfer>
<feMerge>
<feMergeNode in="glow1"/>
<feMergeNode in="SourceGraphic"/>
</feMerge>
</filter>
</defs>
<g class="edge" id="edge-0">
<title>applicant-validator vv0.1.0-15-g2f0e985 -&gt; image-tag.txt</title>
<g id="a-edge-0">
<a title="applicant-validator vv0.1.0-15-g2f0e985 -&gt; image-tag.txt" xlink:title="applicant-validator vv0.1.0-15-g2f0e985 -&gt; image-tag.txt">
<path d="M127.68802,392.30557 C127.68802,406.9376,127.68802,421.56958,127.68802,436.2016 C127.68802,450.8336,127.68802,465.4656,127.68802,480.0976" fill="none" stroke="black" stroke-width="1"/>
<polygon fill="black" points="127.68802,480.0976 131.68802,470.0976 123.68802,470.0976 127.68802,480.0976" stroke="black" stroke-width="1"/>
<rect fill="transparent" height="37.792" stroke="transparent" stroke-width="1" width="102.81601" x="76.280014" y="417.3056"/>
<path d="M94.73314,432.0971 Q93.811264,432.0971,93.07689,432.4096 Q92.342514,432.70648,91.82689,433.31586 Q91.32689,433.9096,91.04564,434.76898 Q90.780014,435.62836,90.780014,436.69086 Q90.780014,438.11273,91.217514,439.1596 Q91.655014,440.19086,92.530014,440.75336 Q93.405014,441.30023,94.717514,441.30023 Q95.467514,441.30023,96.13939,441.17523 Q96.811264,441.05023,97.45189,440.86273 L97.45189,442.11273 Q96.811264,442.3471,96.123764,442.45648 Q95.45189,442.56586,94.498764,442.56586 Q92.76439,442.56586,91.592514,441.8471 Q90.42064,441.12836,89.82689,439.80023 Q89.248764,438.4721,89.248764,436.67523 Q89.248764,435.37836,89.60814,434.31586 Q89.98314,433.23773,90.67064,432.45648 Q91.373764,431.67523,92.38939,431.25336 Q93.42064,430.83148,94.748764,430.83148 Q95.623764,430.83148,96.436264,431.00336 Q97.248764,431.17523,97.88939,431.50336 L97.32689,432.70648 Q96.79564,432.4721,96.13939,432.2846 Q95.498764,432.0971,94.73314,432.0971 ZM109.58764,436.67523 Q109.58764,438.00336,109.24389,439.0971 Q108.915764,440.17523,108.24389,440.95648 Q107.58764,441.73773,106.603264,442.1596 Q105.61889,442.56586,104.322014,442.56586 Q102.978264,442.56586,101.978264,442.14398 Q100.99389,441.7221,100.33764,440.95648 Q99.68139,440.17523,99.353264,439.08148 Q99.040764,437.98773,99.040764,436.6596 Q99.040764,434.9096,99.61889,433.5971 Q100.197014,432.2846,101.36889,431.55023 Q102.55639,430.81586,104.33764,430.81586 Q106.05639,430.81586,107.21264,431.55023 Q108.384514,432.26898,108.978264,433.5971 Q109.58764,434.9096,109.58764,436.67523 ZM100.572014,436.67523 Q100.572014,438.12836,100.96264,439.17523 Q101.36889,440.20648,102.197014,440.76898 Q103.040764,441.31586,104.322014,441.31586 Q105.61889,441.31586,106.447014,440.76898 Q107.27514,440.20648,107.665764,439.17523 Q108.072014,438.12836,108.072014,436.67523 Q108.072014,434.51898,107.165764,433.30023 Q106.27514,432.06586,104.33764,432.06586 Q103.040764,432.06586,102.197014,432.62836 Q101.36889,433.17523,100.96264,434.20648 Q100.572014,435.23773,100.572014,436.67523 ZM121.17739,442.4096 L119.48989,442.4096 L113.380516,432.92523 L113.318016,432.92523 Q113.349266,433.2846,113.36489,433.80023 Q113.39614,434.30023,113.411766,434.87836 Q113.443016,435.44086,113.443016,436.01898 L113.443016,442.4096 L112.11489,442.4096 L112.11489,430.98773 L113.786766,430.98773 L119.880516,440.44086 L119.943016,440.44086 Q119.92739,440.19086,119.89614,439.67523 Q119.880516,439.1596,119.849266,438.55023 Q119.83364,437.94086,119.83364,437.44086 L119.83364,430.98773 L121.17739,430.98773 ZM127.899895,442.4096 L126.462395,442.4096 L126.462395,432.25336 L122.88427,432.25336 L122.88427,430.98773 L131.44678,430.98773 L131.44678,432.25336 L127.899895,432.25336 ZM139.22276,442.4096 L137.84776,438.87836 L133.31651,438.87836 L131.95714,442.4096 L130.50401,442.4096 L134.97276,430.94086 L136.26964,430.94086 L140.70714,442.4096 ZM136.12901,434.14398 Q136.08214,434.00336,135.97276,433.67523 Q135.86339,433.33148,135.75401,432.9721 Q135.66026,432.61273,135.59776,432.42523 Q135.51964,432.75336,135.42589,433.08148 Q135.33214,433.39398,135.23839,433.67523 Q135.16026,433.94086,135.09776,434.14398 L133.80089,437.5971 L137.41026,437.5971 ZM145.49364,442.4096 L141.36864,442.4096 L141.36864,441.58148 L142.71239,441.26898 L142.71239,432.14398 L141.36864,431.81586 L141.36864,430.98773 L145.49364,430.98773 L145.49364,431.81586 L144.14989,432.14398 L144.14989,441.26898 L145.49364,441.58148 ZM156.76138,442.4096 L155.07388,442.4096 L148.96451,432.92523 L148.90201,432.92523 Q148.93326,433.2846,148.94888,433.80023 Q148.98013,434.30023,148.99576,434.87836 Q149.02701,435.44086,149.02701,436.01898 L149.02701,442.4096 L147.69888,442.4096 L147.69888,430.98773 L149.37076,430.98773 L155.46451,440.44086 L155.52701,440.44086 Q155.51138,440.19086,155.48013,439.67523 Q155.46451,439.1596,155.43326,438.55023 Q155.41763,437.94086,155.41763,437.44086 L155.41763,430.98773 L156.76138,430.98773 ZM166.34326,439.3471 Q166.34326,440.37836,165.84326,441.0971 Q165.35889,441.80023,164.43701,442.19086 Q163.51514,442.56586,162.26514,442.56586 Q161.62451,442.56586,161.03076,442.50336 Q160.45264,442.44086,159.96826,442.33148 Q159.49951,442.20648,159.12451,442.01898 L159.12451,440.64398 Q159.70264,440.9096,160.56201,441.11273 Q161.42139,441.31586,162.32764,441.31586 Q163.17139,441.31586,163.74951,441.0971 Q164.32764,440.87836,164.60889,440.45648 Q164.90576,440.0346,164.90576,439.48773 Q164.90576,438.92523,164.65576,438.55023 Q164.42139,438.1596,163.82764,437.83148 Q163.24951,437.50336,162.21826,437.12836 Q161.48389,436.86273,160.92139,436.55023 Q160.37451,436.23773,159.99951,435.8471 Q159.64014,435.44086,159.45264,434.92523 Q159.26514,434.4096,159.26514,433.73773 Q159.26514,432.83148,159.73389,432.19086 Q160.20264,431.5346,161.01514,431.19086 Q161.84326,430.83148,162.92139,430.83148 Q163.85889,430.83148,164.64014,431.00336 Q165.43701,431.17523,166.07764,431.4721 L165.62451,432.69086 Q165.03076,432.44086,164.32764,432.26898 Q163.64014,432.0971,162.89014,432.0971 Q162.17139,432.0971,161.68701,432.30023 Q161.20264,432.50336,160.96826,432.87836 Q160.73389,433.25336,160.73389,433.75336 Q160.73389,434.33148,160.96826,434.7221 Q161.20264,435.0971,161.74951,435.4096 Q162.29639,435.70648,163.21826,436.05023 Q164.23389,436.42523,164.92139,436.8471 Q165.62451,437.26898,165.98389,437.86273 Q166.34326,438.45648,166.34326,439.3471 Z" fill="black"/>
</a>
</g>
</g>
<g class="edge" id="edge-1">
<title>applicant-validator v0.1.0-15-g2f0e985 -&gt; applicant-validator vv0.1.0-15-g2f0e985</title>
<g id="a-edge-1">
<a title="applicant-validator v0.1.0-15-g2f0e985 -&gt; applicant-validator vv0.1.0-15-g2f0e985" xlink:title="applicant-validator v0.1.0-15-g2f0e985 -&gt; applicant-validator vv0.1.0-15-g2f0e985">
<path d="M127.68802,245.4296 C127.68802,259.89493,127.68802,274.36026,127.68802,288.8256 C127.68802,303.45758,127.68802,318.0896,127.68802,332.7216" fill="none" stroke="black" stroke-width="1"/>
<polygon fill="black" points="127.68802,332.7216 131.68802,322.7216 123.68802,322.7216 127.68802,332.7216" stroke="black" stroke-width="1"/>
<rect fill="transparent" height="37.792" stroke="transparent" stroke-width="1" width="106.92801" x="74.224014" y="269.9296"/>
<path d="M96.92714,289.20547 Q96.92714,291.12735,96.20839,292.42422 Q95.505264,293.7211,94.17714,294.37735 Q92.849014,295.0336,90.95839,295.0336 L87.77089,295.0336 L87.77089,283.61172 L91.30214,283.61172 Q93.02089,283.61172,94.286514,284.25235 Q95.55214,284.89297,96.23964,286.14297 Q96.92714,287.37735,96.92714,289.20547 ZM95.411514,289.25235 Q95.411514,287.73672,94.89589,286.76797 Q94.39589,285.7836,93.42714,285.31485 Q92.45839,284.8461,91.08339,284.8461 L89.20839,284.8461 L89.20839,293.79922 L90.77089,293.79922 Q93.08339,293.79922,94.23964,292.6586 Q95.411514,291.51797,95.411514,289.25235 ZM105.841515,295.0336 L99.45089,295.0336 L99.45089,283.61172 L105.841515,283.61172 L105.841515,284.87735 L100.88839,284.87735 L100.88839,288.43985 L105.54464,288.43985 L105.54464,289.68985 L100.88839,289.68985 L100.88839,293.76797 L105.841515,293.76797 ZM114.83127,291.9711 Q114.83127,293.00235,114.33127,293.7211 Q113.84689,294.42422,112.92502,294.81485 Q112.00314,295.18985,110.75314,295.18985 Q110.11252,295.18985,109.51877,295.12735 Q108.94064,295.06485,108.45627,294.95547 Q107.98752,294.83047,107.61252,294.64297 L107.61252,293.26797 Q108.19064,293.5336,109.05002,293.73672 Q109.90939,293.93985,110.81564,293.93985 Q111.65939,293.93985,112.23752,293.7211 Q112.81564,293.50235,113.09689,293.08047 Q113.39377,292.6586,113.39377,292.11172 Q113.39377,291.54922,113.14377,291.17422 Q112.90939,290.7836,112.31564,290.45547 Q111.73752,290.12735,110.70627,289.75235 Q109.97189,289.48672,109.40939,289.17422 Q108.86252,288.86172,108.48752,288.4711 Q108.12814,288.06485,107.94064,287.54922 Q107.75314,287.0336,107.75314,286.36172 Q107.75314,285.45547,108.22189,284.81485 Q108.69064,284.1586,109.50314,283.81485 Q110.33127,283.45547,111.40939,283.45547 Q112.34689,283.45547,113.12814,283.62735 Q113.92502,283.79922,114.56564,284.0961 L114.11252,285.31485 Q113.51877,285.06485,112.81564,284.89297 Q112.12814,284.7211,111.37814,284.7211 Q110.65939,284.7211,110.17502,284.92422 Q109.69064,285.12735,109.45627,285.50235 Q109.22189,285.87735,109.22189,286.37735 Q109.22189,286.95547,109.45627,287.3461 Q109.69064,287.7211,110.23752,288.0336 Q110.78439,288.33047,111.70627,288.67422 Q112.72189,289.04922,113.40939,289.4711 Q114.11252,289.89297,114.47189,290.48672 Q114.83127,291.08047,114.83127,291.9711 ZM122.03714,284.7211 Q121.115265,284.7211,120.38089,285.0336 Q119.646515,285.33047,119.13089,285.93985 Q118.63089,286.5336,118.34964,287.39297 Q118.084015,288.25235,118.084015,289.31485 Q118.084015,290.73672,118.521515,291.7836 Q118.959015,292.81485,119.834015,293.37735 Q120.709015,293.92422,122.021515,293.92422 Q122.771515,293.92422,123.44339,293.79922 Q124.115265,293.67422,124.75589,293.48672 L124.75589,294.73672 Q124.115265,294.9711,123.427765,295.08047 Q122.75589,295.18985,121.802765,295.18985 Q120.06839,295.18985,118.896515,294.4711 Q117.72464,293.75235,117.13089,292.42422 Q116.552765,291.0961,116.552765,289.29922 Q116.552765,288.00235,116.91214,286.93985 Q117.28714,285.86172,117.97464,285.08047 Q118.677765,284.29922,119.69339,283.87735 Q120.72464,283.45547,122.052765,283.45547 Q122.927765,283.45547,123.740265,283.62735 Q124.552765,283.79922,125.19339,284.12735 L124.63089,285.33047 Q124.09964,285.0961,123.44339,284.9086 Q122.802765,284.7211,122.03714,284.7211 ZM130.39914,283.61172 Q131.82101,283.61172,132.74289,283.9711 Q133.66476,284.33047,134.10226,285.04922 Q134.55539,285.76797,134.55539,286.86172 Q134.55539,287.76797,134.21164,288.37735 Q133.88351,288.98672,133.36789,289.3461 Q132.85226,289.70547,132.27414,289.9086 L135.41476,295.0336 L133.72726,295.0336 L130.96164,290.31485 L128.68039,290.31485 L128.68039,295.0336 L127.24289,295.0336 L127.24289,283.61172 ZM130.32101,284.86172 L128.68039,284.86172 L128.68039,289.0961 L130.39914,289.0961 Q131.78976,289.0961,132.43039,288.54922 Q133.07101,287.98672,133.07101,286.92422 Q133.07101,286.17422,132.77414,285.7211 Q132.47726,285.26797,131.86789,285.06485 Q131.25851,284.86172,130.32101,284.86172 ZM140.41364,295.0336 L136.28864,295.0336 L136.28864,294.20547 L137.63239,293.89297 L137.63239,284.76797 L136.28864,284.43985 L136.28864,283.61172 L140.41364,283.61172 L140.41364,284.43985 L139.06989,284.76797 L139.06989,293.89297 L140.41364,294.20547 ZM145.8845,283.61172 Q148.02513,283.61172,149.11888,284.25235 Q150.22826,284.87735,150.22826,286.43985 Q150.22826,287.11172,149.97826,287.64297 Q149.72826,288.1586,149.24388,288.50235 Q148.7595,288.8461,148.04076,288.9711 L148.04076,289.04922 Q148.77513,289.1586,149.35326,289.4711 Q149.93138,289.76797,150.2595,290.33047 Q150.60326,290.89297,150.60326,291.7836 Q150.60326,292.83047,150.11888,293.56485 Q149.65013,294.2836,148.7595,294.6586 Q147.86888,295.0336,146.6345,295.0336 L142.61888,295.0336 L142.61888,283.61172 ZM146.18138,288.4711 Q147.65013,288.4711,148.18138,288.00235 Q148.72826,287.5336,148.72826,286.5961 Q148.72826,285.6586,148.072,285.25235 Q147.41576,284.8461,145.947,284.8461 L144.05638,284.8461 L144.05638,288.4711 ZM144.05638,289.67422 L144.05638,293.81485 L146.36888,293.81485 Q147.8845,293.81485,148.47826,293.2211 Q149.072,292.62735,149.072,291.67422 Q149.072,291.06485,148.80638,290.62735 Q148.54076,290.17422,147.91576,289.92422 Q147.30638,289.67422,146.2595,289.67422 ZM159.4095,295.0336 L153.01888,295.0336 L153.01888,283.61172 L159.4095,283.61172 L159.4095,284.87735 L154.45638,284.87735 L154.45638,288.43985 L159.11263,288.43985 L159.11263,289.68985 L154.45638,289.68985 L154.45638,293.76797 L159.4095,293.76797 ZM168.39925,291.9711 Q168.39925,293.00235,167.89925,293.7211 Q167.41487,294.42422,166.493,294.81485 Q165.57112,295.18985,164.32112,295.18985 Q163.6805,295.18985,163.08675,295.12735 Q162.50862,295.06485,162.02425,294.95547 Q161.5555,294.83047,161.1805,294.64297 L161.1805,293.26797 Q161.75862,293.5336,162.618,293.73672 Q163.47737,293.93985,164.38362,293.93985 Q165.22737,293.93985,165.8055,293.7211 Q166.38362,293.50235,166.66487,293.08047 Q166.96175,292.6586,166.96175,292.11172 Q166.96175,291.54922,166.71175,291.17422 Q166.47737,290.7836,165.88362,290.45547 Q165.3055,290.12735,164.27425,289.75235 Q163.53987,289.48672,162.97737,289.17422 Q162.4305,288.86172,162.0555,288.4711 Q161.69612,288.06485,161.50862,287.54922 Q161.32112,287.0336,161.32112,286.36172 Q161.32112,285.45547,161.78987,284.81485 Q162.25862,284.1586,163.07112,283.81485 Q163.89925,283.45547,164.97737,283.45547 Q165.91487,283.45547,166.69612,283.62735 Q167.493,283.79922,168.13362,284.0961 L167.6805,285.31485 Q167.08675,285.06485,166.38362,284.89297 Q165.69612,284.7211,164.94612,284.7211 Q164.22737,284.7211,163.743,284.92422 Q163.25862,285.12735,163.02425,285.50235 Q162.78987,285.87735,162.78987,286.37735 Q162.78987,286.95547,163.02425,287.3461 Q163.25862,287.7211,163.8055,288.0336 Q164.35237,288.33047,165.27425,288.67422 Q166.28987,289.04922,166.97737,289.4711 Q167.6805,289.89297,168.03987,290.48672 Q168.39925,291.08047,168.39925,291.9711 Z" fill="black"/>
</a>
</g>
</g>
<g class="node" id="node-0">
<title>Organization: FinSure Capital
Tool: Microsoft.SBOMTool-4.1.5
SPDX Version: SPDX-2.2
Data License: CC0-1.0</title>
<g id="a-node-0">
<a title="Organization: FinSure Capital
Tool: Microsoft.SBOMTool-4.1.5
SPDX Version: SPDX-2.2
Data License: CC0-1.0" xlink:title="Organization: FinSure Capital
Tool: Microsoft.SBOMTool-4.1.5
SPDX Version: SPDX-2.2
Data License: CC0-1.0">
<circle cx="127.68802" cy="127.4648" fill="#E0E0E0" r="117.4648" stroke="black" stroke-width="1"/>
<path d="M30.673386,114.058044 Q32.235886,114.058044,32.985886,114.745544 Q33.75151,115.433044,33.75151,116.933044 L33.75151,122.776794 L32.72026,122.776794 L32.454636,121.558044 L32.37651,121.558044 Q32.017136,122.026794,31.62651,122.339294 Q31.235886,122.651794,30.72026,122.79242 Q30.22026,122.933044,29.50151,122.933044 Q28.735886,122.933044,28.110886,122.66742 Q27.50151,122.38617,27.142136,121.82367 Q26.798386,121.26117,26.798386,120.38617 Q26.798386,119.120544,27.798386,118.41742 Q28.81401,117.714294,30.90776,117.651794 L32.360886,117.60492 L32.360886,117.089294 Q32.360886,116.026794,31.892136,115.620544 Q31.43901,115.19867,30.59526,115.19867 Q29.923386,115.19867,29.31401,115.401794 Q28.704636,115.589294,28.173386,115.85492 L27.75151,114.79242 Q28.298386,114.495544,29.06401,114.276794 Q29.84526,114.058044,30.673386,114.058044 ZM31.09526,118.63617 Q29.485886,118.69867,28.860886,119.151794 Q28.25151,119.589294,28.25151,120.401794 Q28.25151,121.13617,28.68901,121.47992 Q29.142136,121.808044,29.829636,121.808044 Q30.90776,121.808044,31.62651,121.214294 Q32.34526,120.60492,32.34526,119.35492 L32.34526,118.589294 ZM40.477512,114.04242 Q42.071262,114.04242,43.024387,115.151794 Q43.993137,116.245544,43.993137,118.47992 Q43.993137,119.933044,43.555637,120.933044 Q43.118137,121.933044,42.321262,122.433044 Q41.540012,122.933044,40.461887,122.933044 Q39.805637,122.933044,39.290012,122.76117 Q38.790012,122.589294,38.430637,122.308044 Q38.071262,122.026794,37.805637,121.683044 L37.711887,121.683044 Q37.743137,121.964294,37.774387,122.38617 Q37.805637,122.79242,37.805637,123.089294 L37.805637,126.620544 L36.399387,126.620544 L36.399387,114.19867 L37.555637,114.19867 L37.743137,115.370544 L37.805637,115.370544 Q38.071262,114.995544,38.430637,114.69867 Q38.790012,114.38617,39.290012,114.214294 Q39.790012,114.04242,40.477512,114.04242 ZM40.227512,115.22992 Q39.352512,115.22992,38.821262,115.558044 Q38.305637,115.88617,38.055637,116.54242 Q37.821262,117.19867,37.805637,118.19867 L37.805637,118.47992 Q37.805637,119.526794,38.024387,120.26117 Q38.258762,120.995544,38.790012,121.38617 Q39.321262,121.76117,40.258762,121.76117 Q41.040012,121.76117,41.540012,121.339294 Q42.055637,120.901794,42.290012,120.16742 Q42.540012,119.41742,42.540012,118.464294 Q42.540012,116.97992,41.977512,116.10492 Q41.415012,115.22992,40.227512,115.22992 ZM50.317513,114.04242 Q51.911263,114.04242,52.864388,115.151794 Q53.833138,116.245544,53.833138,118.47992 Q53.833138,119.933044,53.395638,120.933044 Q52.958138,121.933044,52.161263,122.433044 Q51.380013,122.933044,50.301888,122.933044 Q49.645638,122.933044,49.130013,122.76117 Q48.630013,122.589294,48.270638,122.308044 Q47.911263,122.026794,47.645638,121.683044 L47.551888,121.683044 Q47.583138,121.964294,47.614388,122.38617 Q47.645638,122.79242,47.645638,123.089294 L47.645638,126.620544 L46.239388,126.620544 L46.239388,114.19867 L47.395638,114.19867 L47.583138,115.370544 L47.645638,115.370544 Q47.911263,114.995544,48.270638,114.69867 Q48.630013,114.38617,49.130013,114.214294 Q49.630013,114.04242,50.317513,114.04242 ZM50.067513,115.22992 Q49.192513,115.22992,48.661263,115.558044 Q48.145638,115.88617,47.895638,116.54242 Q47.661263,117.19867,47.645638,118.19867 L47.645638,118.47992 Q47.645638,119.526794,47.864388,120.26117 Q48.098763,120.995544,48.630013,121.38617 Q49.161263,121.76117,50.098763,121.76117 Q50.880013,121.76117,51.380013,121.339294 Q51.895638,120.901794,52.130013,120.16742 Q52.380013,119.41742,52.380013,118.464294 Q52.380013,116.97992,51.817513,116.10492 Q51.255013,115.22992,50.067513,115.22992 ZM57.485638,122.776794 L56.079388,122.776794 L56.079388,110.620544 L57.485638,110.620544 ZM61.61364,114.19867 L61.61364,122.776794 L60.20739,122.776794 L60.20739,114.19867 ZM60.92614,110.97992 Q61.254265,110.97992,61.48864,111.19867 Q61.73864,111.41742,61.73864,111.88617 Q61.73864,112.32367,61.48864,112.558044 Q61.254265,112.776794,60.92614,112.776794 Q60.58239,112.776794,60.33239,112.558044 Q60.098015,112.32367,60.098015,111.88617 Q60.098015,111.41742,60.33239,111.19867 Q60.58239,110.97992,60.92614,110.97992 ZM67.77289,122.933044 Q66.63226,122.933044,65.74164,122.47992 Q64.86664,122.01117,64.35101,121.04242 Q63.851013,120.058044,63.851013,118.54242 Q63.851013,116.94867,64.38226,115.964294 Q64.91351,114.964294,65.81976,114.51117 Q66.72601,114.04242,67.86664,114.04242 Q68.52289,114.04242,69.13226,114.183044 Q69.74164,114.308044,70.13226,114.51117 L69.69476,115.66742 Q69.31976,115.526794,68.80414,115.401794 Q68.28851,115.276794,67.83539,115.276794 Q66.97601,115.276794,66.41351,115.651794 Q65.85101,116.01117,65.58539,116.72992 Q65.31976,117.44867,65.31976,118.526794 Q65.31976,119.54242,65.58539,120.26117 Q65.85101,120.97992,66.39789,121.35492 Q66.94476,121.714294,67.75726,121.714294 Q68.46039,121.714294,68.99164,121.57367 Q69.53851,121.433044,69.99164,121.22992 L69.99164,122.47992 Q69.55414,122.69867,69.02289,122.808044 Q68.50726,122.933044,67.77289,122.933044 ZM75.26539,114.058044 Q76.82789,114.058044,77.57789,114.745544 Q78.34351,115.433044,78.34351,116.933044 L78.34351,122.776794 L77.31226,122.776794 L77.04664,121.558044 L76.96851,121.558044 Q76.60914,122.026794,76.21851,122.339294 Q75.82789,122.651794,75.31226,122.79242 Q74.81226,122.933044,74.09351,122.933044 Q73.32789,122.933044,72.70289,122.66742 Q72.09351,122.38617,71.73414,121.82367 Q71.39039,121.26117,71.39039,120.38617 Q71.39039,119.120544,72.39039,118.41742 Q73.40601,117.714294,75.49976,117.651794 L76.95289,117.60492 L76.95289,117.089294 Q76.95289,116.026794,76.48414,115.620544 Q76.03101,115.19867,75.18726,115.19867 Q74.51539,115.19867,73.90601,115.401794 Q73.29664,115.589294,72.76539,115.85492 L72.34351,114.79242 Q72.89039,114.495544,73.65601,114.276794 Q74.43726,114.058044,75.26539,114.058044 ZM75.68726,118.63617 Q74.07789,118.69867,73.45289,119.151794 Q72.84351,119.589294,72.84351,120.401794 Q72.84351,121.13617,73.28101,121.47992 Q73.73414,121.808044,74.42164,121.808044 Q75.49976,121.808044,76.21851,121.214294 Q76.93726,120.60492,76.93726,119.35492 L76.93726,118.589294 ZM85.11639,114.04242 Q86.66326,114.04242,87.44451,114.79242 Q88.22576,115.526794,88.22576,117.19867 L88.22576,122.776794 L86.83514,122.776794 L86.83514,117.29242 Q86.83514,116.245544,86.36639,115.745544 Q85.89764,115.22992,84.91326,115.22992 Q83.49139,115.22992,82.94451,116.026794 Q82.39764,116.82367,82.39764,118.32367 L82.39764,122.776794 L80.99139,122.776794 L80.99139,114.19867 L82.13201,114.19867 L82.33514,115.370544 L82.41326,115.370544 Q82.71014,114.91742,83.13201,114.620544 Q83.55389,114.32367,84.05389,114.183044 Q84.56951,114.04242,85.11639,114.04242 ZM93.73876,121.79242 Q94.06689,121.79242,94.39501,121.72992 Q94.73876,121.66742,94.94189,121.60492 L94.94189,122.683044 Q94.72314,122.79242,94.30126,122.85492 Q93.89501,122.933044,93.50439,122.933044 Q92.83251,122.933044,92.25439,122.714294 Q91.69189,122.47992,91.33251,121.901794 Q90.98876,121.32367,90.98876,120.276794 L90.98876,115.29242 L89.77001,115.29242 L89.77001,114.620544 L91.00439,114.058044 L91.56689,112.22992 L92.39501,112.22992 L92.39501,114.19867 L94.87939,114.19867 L94.87939,115.29242 L92.39501,115.29242 L92.39501,120.245544 Q92.39501,121.026794,92.77001,121.41742 Q93.14501,121.79242,93.73876,121.79242 ZM95.93664,119.120544 L95.93664,117.870544 L99.81164,117.870544 L99.81164,119.120544 ZM103.69801,122.776794 L100.44801,114.19867 L101.94801,114.19867 L103.77614,119.26117 Q103.90114,119.60492,104.04176,120.04242 Q104.19801,120.47992,104.30739,120.870544 Q104.41676,121.26117,104.46364,121.526794 L104.52614,121.526794 Q104.58864,121.26117,104.71364,120.870544 Q104.83864,120.464294,104.97926,120.026794 Q105.13551,119.589294,105.24489,119.26117 L107.07301,114.19867 L108.57301,114.19867 L105.30739,122.776794 ZM113.18539,114.058044 Q114.74789,114.058044,115.49789,114.745544 Q116.26351,115.433044,116.26351,116.933044 L116.26351,122.776794 L115.23226,122.776794 L114.96664,121.558044 L114.88851,121.558044 Q114.52914,122.026794,114.13851,122.339294 Q113.74789,122.651794,113.23226,122.79242 Q112.73226,122.933044,112.01351,122.933044 Q111.24789,122.933044,110.62289,122.66742 Q110.01351,122.38617,109.65414,121.82367 Q109.31039,121.26117,109.31039,120.38617 Q109.31039,119.120544,110.31039,118.41742 Q111.32601,117.714294,113.41976,117.651794 L114.87289,117.60492 L114.87289,117.089294 Q114.87289,116.026794,114.40414,115.620544 Q113.95101,115.19867,113.10726,115.19867 Q112.43539,115.19867,111.82601,115.401794 Q111.21664,115.589294,110.68539,115.85492 L110.26351,114.79242 Q110.81039,114.495544,111.57601,114.276794 Q112.35726,114.058044,113.18539,114.058044 ZM113.60726,118.63617 Q111.99789,118.69867,111.37289,119.151794 Q110.76351,119.589294,110.76351,120.401794 Q110.76351,121.13617,111.20101,121.47992 Q111.65414,121.808044,112.34164,121.808044 Q113.41976,121.808044,114.13851,121.214294 Q114.85726,120.60492,114.85726,119.35492 L114.85726,118.589294 ZM120.317635,122.776794 L118.911385,122.776794 L118.911385,110.620544 L120.317635,110.620544 ZM124.44563,114.19867 L124.44563,122.776794 L123.03938,122.776794 L123.03938,114.19867 ZM123.75813,110.97992 Q124.08626,110.97992,124.32063,111.19867 Q124.57063,111.41742,124.57063,111.88617 Q124.57063,112.32367,124.32063,112.558044 Q124.08626,112.776794,123.75813,112.776794 Q123.41438,112.776794,123.16438,112.558044 Q122.93001,112.32367,122.93001,111.88617 Q122.93001,111.41742,123.16438,111.19867 Q123.41438,110.97992,123.75813,110.97992 ZM130.21426,122.933044 Q128.60489,122.933044,127.63613,121.82367 Q126.68301,120.714294,126.68301,118.51117 Q126.68301,116.29242,127.65176,115.16742 Q128.62051,114.04242,130.22989,114.04242 Q130.90176,114.04242,131.38614,114.214294 Q131.88614,114.370544,132.24551,114.66742 Q132.62051,114.94867,132.88614,115.308044 L132.97989,115.308044 Q132.96426,115.089294,132.91739,114.683044 Q132.88614,114.276794,132.88614,114.04242 L132.88614,110.620544 L134.29239,110.620544 L134.29239,122.776794 L133.15176,122.776794 L132.94864,121.620544 L132.88614,121.620544 Q132.62051,121.995544,132.24551,122.29242 Q131.88614,122.589294,131.38614,122.76117 Q130.88614,122.933044,130.21426,122.933044 ZM130.43301,121.76117 Q131.79239,121.76117,132.33926,121.026794 Q132.90176,120.276794,132.90176,118.776794 L132.90176,118.526794 Q132.90176,116.91742,132.37051,116.07367 Q131.83926,115.214294,130.41739,115.214294 Q129.27676,115.214294,128.71426,116.120544 Q128.15176,117.01117,128.15176,118.54242 Q128.15176,120.07367,128.71426,120.91742 Q129.27676,121.76117,130.43301,121.76117 ZM140.25739,114.058044 Q141.81989,114.058044,142.56989,114.745544 Q143.33551,115.433044,143.33551,116.933044 L143.33551,122.776794 L142.30426,122.776794 L142.03864,121.558044 L141.96051,121.558044 Q141.60114,122.026794,141.21051,122.339294 Q140.81989,122.651794,140.30426,122.79242 Q139.80426,122.933044,139.08551,122.933044 Q138.31989,122.933044,137.69489,122.66742 Q137.08551,122.38617,136.72614,121.82367 Q136.38239,121.26117,136.38239,120.38617 Q136.38239,119.120544,137.38239,118.41742 Q138.39801,117.714294,140.49176,117.651794 L141.94489,117.60492 L141.94489,117.089294 Q141.94489,116.026794,141.47614,115.620544 Q141.02301,115.19867,140.17926,115.19867 Q139.50739,115.19867,138.89801,115.401794 Q138.28864,115.589294,137.75739,115.85492 L137.33551,114.79242 Q137.88239,114.495544,138.64801,114.276794 Q139.42926,114.058044,140.25739,114.058044 ZM140.67926,118.63617 Q139.06989,118.69867,138.44489,119.151794 Q137.83551,119.589294,137.83551,120.401794 Q137.83551,121.13617,138.27301,121.47992 Q138.72614,121.808044,139.41364,121.808044 Q140.49176,121.808044,141.21051,121.214294 Q141.92926,120.60492,141.92926,119.35492 L141.92926,118.589294 ZM148.84276,121.79242 Q149.17088,121.79242,149.49901,121.72992 Q149.84276,121.66742,150.04588,121.60492 L150.04588,122.683044 Q149.82713,122.79242,149.40526,122.85492 Q148.99901,122.933044,148.60838,122.933044 Q147.93651,122.933044,147.35838,122.714294 Q146.79588,122.47992,146.43651,121.901794 Q146.09276,121.32367,146.09276,120.276794 L146.09276,115.29242 L144.87401,115.29242 L144.87401,114.620544 L146.10838,114.058044 L146.67088,112.22992 L147.49901,112.22992 L147.49901,114.19867 L149.98338,114.19867 L149.98338,115.29242 L147.49901,115.29242 L147.49901,120.245544 Q147.49901,121.026794,147.87401,121.41742 Q148.24901,121.79242,148.84276,121.79242 ZM159.21251,118.47992 Q159.21251,119.54242,158.93126,120.370544 Q158.65001,121.19867,158.13438,121.776794 Q157.61876,122.339294,156.86876,122.63617 Q156.13438,122.933044,155.21251,122.933044 Q154.36876,122.933044,153.65001,122.63617 Q152.93126,122.339294,152.40001,121.776794 Q151.86876,121.19867,151.57188,120.370544 Q151.27501,119.54242,151.27501,118.47992 Q151.27501,117.04242,151.75938,116.058044 Q152.24376,115.07367,153.13438,114.558044 Q154.02501,114.04242,155.25938,114.04242 Q156.43126,114.04242,157.32188,114.558044 Q158.21251,115.07367,158.71251,116.058044 Q159.21251,117.04242,159.21251,118.47992 ZM152.74376,118.47992 Q152.74376,119.47992,152.99376,120.22992 Q153.25938,120.964294,153.82188,121.370544 Q154.38438,121.76117,155.24376,121.76117 Q156.11876,121.76117,156.66563,121.370544 Q157.22813,120.964294,157.49376,120.22992 Q157.75938,119.47992,157.75938,118.47992 Q157.75938,117.44867,157.47813,116.72992 Q157.21251,116.01117,156.66563,115.620544 Q156.11876,115.22992,155.22813,115.22992 Q153.91563,115.22992,153.32188,116.089294 Q152.74376,116.94867,152.74376,118.47992 ZM165.43939,114.04242 Q165.67377,114.04242,165.95502,114.07367 Q166.23627,114.089294,166.45502,114.13617 L166.26752,115.433044 Q166.06439,115.38617,165.81439,115.35492 Q165.56439,115.32367,165.34564,115.32367 Q164.84564,115.32367,164.39252,115.526794 Q163.95502,115.72992,163.59564,116.120544 Q163.25189,116.495544,163.04877,117.026794 Q162.84564,117.54242,162.84564,118.19867 L162.84564,122.776794 L161.43939,122.776794 L161.43939,114.19867 L162.59564,114.19867 L162.75189,115.76117 L162.81439,115.76117 Q163.09564,115.29242,163.47064,114.901794 Q163.86127,114.51117,164.34564,114.276794 Q164.84564,114.04242,165.43939,114.04242 ZM174.09802,122.776794 L170.84802,114.19867 L172.34802,114.19867 L174.17615,119.26117 Q174.30115,119.60492,174.44177,120.04242 Q174.59802,120.47992,174.7074,120.870544 Q174.81677,121.26117,174.86365,121.526794 L174.92615,121.526794 Q174.98865,121.26117,175.11365,120.870544 Q175.23865,120.464294,175.37927,120.026794 Q175.53552,119.589294,175.6449,119.26117 L177.47302,114.19867 L178.97302,114.19867 L175.7074,122.776794 ZM187.35103,117.04242 Q187.35103,118.433044,187.13228,119.526794 Q186.92915,120.620544,186.47603,121.38617 Q186.0229,122.13617,185.28853,122.54242 Q184.55415,122.933044,183.53853,122.933044 Q182.25728,122.933044,181.41353,122.22992 Q180.56978,121.526794,180.16353,120.214294 Q179.75728,118.88617,179.75728,117.04242 Q179.75728,115.19867,180.13228,113.88617 Q180.50728,112.57367,181.3354,111.88617 Q182.17915,111.183044,183.53853,111.183044 Q184.81978,111.183044,185.66353,111.88617 Q186.50728,112.57367,186.92915,113.88617 Q187.35103,115.19867,187.35103,117.04242 ZM181.16353,117.04242 Q181.16353,118.620544,181.3979,119.66742 Q181.63228,120.69867,182.1479,121.214294 Q182.67915,121.72992,183.53853,121.72992 Q184.3979,121.72992,184.91353,121.22992 Q185.44478,120.714294,185.67915,119.66742 Q185.91353,118.620544,185.91353,117.04242 Q185.91353,115.47992,185.67915,114.44867 Q185.44478,113.41742,184.91353,112.901794 Q184.3979,112.370544,183.53853,112.370544 Q182.67915,112.370544,182.1479,112.901794 Q181.63228,113.41742,181.3979,114.44867 Q181.16353,115.47992,181.16353,117.04242 ZM189.28427,121.91742 Q189.28427,121.32367,189.56552,121.089294 Q189.8624,120.839294,190.25302,120.839294 Q190.6749,120.839294,190.97177,121.089294 Q191.26865,121.32367,191.26865,121.91742 Q191.26865,122.495544,190.97177,122.745544 Q190.6749,122.995544,190.25302,122.995544 Q189.8624,122.995544,189.56552,122.745544 Q189.28427,122.495544,189.28427,121.91742 ZM198.10352,122.776794 L196.71289,122.776794 L196.71289,114.79242 Q196.71289,114.32367,196.71289,114.01117 Q196.72852,113.683044,196.74414,113.41742 Q196.77539,113.13617,196.79102,112.82367 Q196.52539,113.07367,196.32227,113.26117 Q196.11914,113.433044,195.79102,113.69867 L194.57227,114.69867 L193.83789,113.745544 L196.93164,111.35492 L198.10352,111.35492 ZM202.72427,121.91742 Q202.72427,121.32367,203.00552,121.089294 Q203.3024,120.839294,203.69302,120.839294 Q204.1149,120.839294,204.41177,121.089294 Q204.70865,121.32367,204.70865,121.91742 Q204.70865,122.495544,204.41177,122.745544 Q204.1149,122.995544,203.69302,122.995544 Q203.3024,122.995544,203.00552,122.745544 Q202.72427,122.495544,202.72427,121.91742 ZM214.23102,117.04242 Q214.23102,118.433044,214.01227,119.526794 Q213.80914,120.620544,213.35602,121.38617 Q212.9029,122.13617,212.16852,122.54242 Q211.43414,122.933044,210.41852,122.933044 Q209.13727,122.933044,208.29352,122.22992 Q207.44977,121.526794,207.04352,120.214294 Q206.63727,118.88617,206.63727,117.04242 Q206.63727,115.19867,207.01227,113.88617 Q207.38727,112.57367,208.2154,111.88617 Q209.05914,111.183044,210.41852,111.183044 Q211.69977,111.183044,212.54352,111.88617 Q213.38727,112.57367,213.80914,113.88617 Q214.23102,115.19867,214.23102,117.04242 ZM208.04352,117.04242 Q208.04352,118.620544,208.2779,119.66742 Q208.51227,120.69867,209.0279,121.214294 Q209.55914,121.72992,210.41852,121.72992 Q211.2779,121.72992,211.79352,121.22992 Q212.32477,120.714294,212.55914,119.66742 Q212.79352,118.620544,212.79352,117.04242 Q212.79352,115.47992,212.55914,114.44867 Q212.32477,113.41742,211.79352,112.901794 Q211.2779,112.370544,210.41852,112.370544 Q209.55914,112.370544,209.0279,112.901794 Q208.51227,113.41742,208.2779,114.44867 Q208.04352,115.47992,208.04352,117.04242 ZM215.64865,119.120544 L215.64865,117.870544 L219.52365,117.870544 L219.52365,119.120544 ZM225.84753,122.776794 L224.45691,122.776794 L224.45691,114.79242 Q224.45691,114.32367,224.45691,114.01117 Q224.47253,113.683044,224.48816,113.41742 Q224.51941,113.13617,224.53503,112.82367 Q224.26941,113.07367,224.06628,113.26117 Q223.86316,113.433044,223.53503,113.69867 L222.31628,114.69867 L221.58191,113.745544 L224.67566,111.35492 L225.84753,111.35492 ZM30.47026,137.55316 Q31.62651,137.55316,32.485886,137.95941 Q33.360886,138.36566,33.829636,139.11566 Q34.298386,139.85004,34.298386,140.92816 Q34.298386,142.10004,33.78276,142.95941 Q33.28276,143.81879,32.329636,144.27191 Q31.37651,144.72504,30.03276,144.72504 Q29.15776,144.72504,28.37651,144.56879 Q27.59526,144.41254,27.079636,144.10004 L27.079636,142.77191 Q27.642136,143.13129,28.47026,143.33441 Q29.298386,143.52191,30.048386,143.52191 Q30.892136,143.52191,31.517136,143.27191 Q32.15776,143.00629,32.50151,142.45941 Q32.860886,141.89691,32.860886,141.06879 Q32.860886,139.94379,32.173386,139.35004 Q31.485886,138.74066,30.00151,138.74066 Q29.548386,138.74066,28.97026,138.83441 Q28.40776,138.91254,28.048386,138.99066 L27.34526,138.53754 L27.78276,133.14691 L33.50151,133.14691 L33.50151,134.42816 L28.97026,134.42816 L28.704636,137.74066 Q28.97026,137.69379,29.43901,137.63129 Q29.90776,137.55316,30.47026,137.55316 ZM35.856636,140.91254 L35.856636,139.66254 L39.731636,139.66254 L39.731636,140.91254 ZM44.77426,135.83441 Q45.61801,135.83441,46.289886,136.16254 Q46.977386,136.47504,47.46176,137.13129 L47.539886,137.13129 L47.727386,135.99066 L48.852386,135.99066 L48.852386,144.70941 Q48.852386,145.92816,48.43051,146.75629 Q48.008636,147.58441,47.164886,147.99066 Q46.321136,148.41254,45.008636,148.41254 Q44.08676,148.41254,43.30551,148.27191 Q42.52426,148.13129,41.914886,147.86566 L41.914886,146.56879 Q42.52426,146.88129,43.33676,147.05316 Q44.164886,147.24066,45.08676,147.24066 Q46.196136,147.24066,46.821136,146.58441 Q47.46176,145.94379,47.46176,144.81879 L47.46176,144.49066 Q47.46176,144.30316,47.477386,143.94379 Q47.49301,143.58441,47.508636,143.42816 L47.446136,143.42816 Q46.99301,144.08441,46.321136,144.41254 Q45.664886,144.72504,44.789886,144.72504 Q43.11801,144.72504,42.18051,143.56879 Q41.24301,142.39691,41.24301,140.30316 Q41.24301,138.25629,42.18051,137.05316 Q43.11801,135.83441,44.77426,135.83441 ZM44.96176,137.02191 Q44.24301,137.02191,43.727386,137.41254 Q43.227386,137.78754,42.96176,138.52191 Q42.71176,139.25629,42.71176,140.31879 Q42.71176,141.89691,43.289886,142.74066 Q43.86801,143.58441,44.99301,143.58441 Q45.64926,143.58441,46.102386,143.41254 Q46.571136,143.24066,46.86801,142.88129 Q47.18051,142.52191,47.321136,141.95941 Q47.477386,141.39691,47.477386,140.63129 L47.477386,140.30316 Q47.477386,139.13129,47.21176,138.41254 Q46.946136,137.69379,46.383636,137.36566 Q45.821136,137.02191,44.96176,137.02191 ZM58.52051,144.56879 L50.973637,144.56879 L50.973637,143.39691 L53.973637,140.38129 Q54.83301,139.50629,55.42676,138.83441 Q56.02051,138.16254,56.317387,137.52191 Q56.629887,136.86566,56.629887,136.10004 Q56.629887,135.16254,56.067387,134.67816 Q55.504887,134.17816,54.61426,134.17816 Q53.77051,134.17816,53.129887,134.47504 Q52.504887,134.75629,51.848637,135.27191 L51.098637,134.33441 Q51.55176,133.94379,52.08301,133.64691 Q52.629887,133.33441,53.254887,133.16254 Q53.89551,132.99066,54.61426,132.99066 Q55.67676,132.99066,56.442387,133.36566 Q57.223637,133.72504,57.64551,134.41254 Q58.067387,135.08441,58.067387,136.02191 Q58.067387,136.92816,57.692387,137.70941 Q57.33301,138.49066,56.67676,139.25629 Q56.02051,140.00629,55.129887,140.86566 L52.754887,143.22504 L52.754887,143.28754 L58.52051,143.28754 ZM64.672516,137.08441 L62.516262,137.08441 L62.516262,144.56879 L61.110012,144.56879 L61.110012,137.08441 L59.594387,137.08441 L59.594387,136.42816 L61.110012,135.94379 L61.110012,135.44379 Q61.110012,134.35004,61.438137,133.66254 Q61.766262,132.97504,62.375637,132.66254 Q63.000637,132.33441,63.891262,132.33441 Q64.40689,132.33441,64.828766,132.42816 Q65.25064,132.50629,65.547516,132.61566 L65.18814,133.72504 Q64.922516,133.64691,64.578766,133.56879 Q64.25064,133.47504,63.906887,133.47504 Q63.203762,133.47504,62.860012,133.95941 Q62.516262,134.42816,62.516262,135.42816 L62.516262,135.99066 L64.672516,135.99066 ZM73.23901,138.83441 Q73.23901,140.22504,73.02026,141.31879 Q72.81714,142.41254,72.36401,143.17816 Q71.91089,143.92816,71.17651,144.33441 Q70.44214,144.72504,69.42651,144.72504 Q68.14526,144.72504,67.30151,144.02191 Q66.45776,143.31879,66.05151,142.00629 Q65.64526,140.67816,65.64526,138.83441 Q65.64526,136.99066,66.02026,135.67816 Q66.39526,134.36566,67.22339,133.67816 Q68.06714,132.97504,69.42651,132.97504 Q70.70776,132.97504,71.55151,133.67816 Q72.39526,134.36566,72.81714,135.67816 Q73.23901,136.99066,73.23901,138.83441 ZM67.05151,138.83441 Q67.05151,140.41254,67.28589,141.45941 Q67.52026,142.49066,68.03589,143.00629 Q68.56714,143.52191,69.42651,143.52191 Q70.28589,143.52191,70.80151,143.02191 Q71.33276,142.50629,71.56714,141.45941 Q71.80151,140.41254,71.80151,138.83441 Q71.80151,137.27191,71.56714,136.24066 Q71.33276,135.20941,70.80151,134.69379 Q70.28589,134.16254,69.42651,134.16254 Q68.56714,134.16254,68.03589,134.69379 Q67.52026,135.20941,67.28589,136.24066 Q67.05151,137.27191,67.05151,138.83441 ZM78.68789,135.83441 Q79.797264,135.83441,80.578514,136.31879 Q81.37539,136.78754,81.797264,137.66254 Q82.21914,138.53754,82.21914,139.70941 L82.21914,140.55316 L76.359764,140.55316 Q76.391014,142.00629,77.09414,142.77191 Q77.81289,143.52191,79.09414,143.52191 Q79.90664,143.52191,80.53164,143.38129 Q81.172264,143.22504,81.84414,142.94379 L81.84414,144.16254 Q81.18789,144.45941,80.547264,144.58441 Q79.90664,144.72504,79.03164,144.72504 Q77.81289,144.72504,76.87539,144.24066 Q75.93789,143.74066,75.40664,142.75629 Q74.891014,141.77191,74.891014,140.35004 Q74.891014,138.94379,75.359764,137.94379 Q75.84414,136.92816,76.68789,136.38129 Q77.547264,135.83441,78.68789,135.83441 ZM78.672264,136.99066 Q77.65664,136.99066,77.078514,137.64691 Q76.50039,138.28754,76.391014,139.42816 L80.75039,139.42816 Q80.75039,138.69379,80.516014,138.16254 Q80.297264,137.61566,79.84414,137.30316 Q79.391014,136.99066,78.672264,136.99066 ZM91.352516,138.02191 Q91.352516,139.00629,91.21189,139.97504 Q91.08689,140.94379,90.74314,141.80316 Q90.415016,142.64691,89.821266,143.31879 Q89.227516,143.97504,88.321266,144.35004 Q87.415016,144.72504,86.11814,144.72504 Q85.790016,144.72504,85.36814,144.67816 Q84.946266,144.64691,84.665016,144.56879 L84.665016,143.36566 Q84.96189,143.45941,85.33689,143.52191 Q85.727516,143.58441,86.08689,143.58441 Q87.196266,143.58441,87.915016,143.20941 Q88.64939,142.83441,89.08689,142.20941 Q89.52439,141.58441,89.71189,140.74066 Q89.89939,139.89691,89.93064,138.97504 L89.83689,138.97504 Q89.602516,139.33441,89.227516,139.64691 Q88.86814,139.94379,88.33689,140.13129 Q87.821266,140.30316,87.11814,140.30316 Q86.14939,140.30316,85.39939,139.89691 Q84.64939,139.47504,84.24314,138.70941 Q83.83689,137.94379,83.83689,136.83441 Q83.83689,135.64691,84.290016,134.78754 Q84.758766,133.91254,85.571266,133.45941 Q86.383766,132.99066,87.49314,132.99066 Q88.30564,132.99066,89.008766,133.30316 Q89.71189,133.61566,90.24314,134.24066 Q90.77439,134.85004,91.05564,135.80316 Q91.352516,136.74066,91.352516,138.02191 ZM87.49314,134.16254 Q86.49314,134.16254,85.852516,134.81879 Q85.227516,135.47504,85.227516,136.81879 Q85.227516,137.92816,85.758766,138.56879 Q86.30564,139.19379,87.43064,139.19379 Q88.196266,139.19379,88.74314,138.88129 Q89.30564,138.56879,89.61814,138.10004 Q89.93064,137.61566,89.93064,137.10004 Q89.93064,136.58441,89.77439,136.06879 Q89.633766,135.53754,89.321266,135.11566 Q89.02439,134.67816,88.55564,134.42816 Q88.102516,134.16254,87.49314,134.16254 ZM96.75452,132.99066 Q97.75452,132.99066,98.52014,133.30316 Q99.30139,133.61566,99.73889,134.22504 Q100.17639,134.81879,100.17639,135.72504 Q100.17639,136.41254,99.87952,136.92816 Q99.58264,137.42816,99.08264,137.81879 Q98.59827,138.20941,98.00452,138.52191 Q98.70764,138.85004,99.27014,139.28754 Q99.84827,139.70941,100.19202,140.27191 Q100.55139,140.81879,100.55139,141.61566 Q100.55139,142.56879,100.08264,143.27191 Q99.61389,143.95941,98.77014,144.35004 Q97.94202,144.72504,96.80139,144.72504 Q95.56702,144.72504,94.70764,144.36566 Q93.84827,143.99066,93.41077,143.31879 Q92.97327,142.63129,92.97327,141.66254 Q92.97327,140.86566,93.30139,140.30316 Q93.62952,139.72504,94.17639,139.30316 Q94.72327,138.88129,95.34827,138.60004 Q94.78577,138.28754,94.33264,137.88129 Q93.87952,137.45941,93.61389,136.94379 Q93.34827,136.41254,93.34827,135.70941 Q93.34827,134.81879,93.78577,134.22504 Q94.23889,133.63129,95.00452,133.31879 Q95.77014,132.99066,96.75452,132.99066 ZM94.34827,141.67816 Q94.34827,142.50629,94.94202,143.06879 Q95.53577,143.61566,96.77014,143.61566 Q97.94202,143.61566,98.55139,143.06879 Q99.16077,142.50629,99.16077,141.63129 Q99.16077,141.06879,98.86389,140.64691 Q98.58264,140.20941,98.03577,139.88129 Q97.50452,139.53754,96.77014,139.27191 L96.50452,139.17816 Q95.80139,139.47504,95.31702,139.83441 Q94.84827,140.17816,94.59827,140.63129 Q94.34827,141.08441,94.34827,141.67816 ZM96.73889,134.11566 Q95.84827,134.11566,95.28577,134.55316 Q94.72327,134.97504,94.72327,135.77191 Q94.72327,136.36566,95.00452,136.77191 Q95.28577,137.16254,95.75452,137.44379 Q96.23889,137.72504,96.81702,137.97504 Q97.37952,137.74066,97.81702,137.45941 Q98.25452,137.16254,98.52014,136.75629 Q98.78577,136.35004,98.78577,135.77191 Q98.78577,134.97504,98.22327,134.55316 Q97.66077,134.11566,96.73889,134.11566 ZM105.75027,137.55316 Q106.90652,137.55316,107.76589,137.95941 Q108.64089,138.36566,109.10964,139.11566 Q109.57839,139.85004,109.57839,140.92816 Q109.57839,142.10004,109.06277,142.95941 Q108.56277,143.81879,107.60964,144.27191 Q106.65652,144.72504,105.31277,144.72504 Q104.43777,144.72504,103.65652,144.56879 Q102.87527,144.41254,102.35964,144.10004 L102.35964,142.77191 Q102.92214,143.13129,103.75027,143.33441 Q104.57839,143.52191,105.32839,143.52191 Q106.17214,143.52191,106.79714,143.27191 Q107.43777,143.00629,107.78152,142.45941 Q108.14089,141.89691,108.14089,141.06879 Q108.14089,139.94379,107.45339,139.35004 Q106.76589,138.74066,105.28152,138.74066 Q104.82839,138.74066,104.25027,138.83441 Q103.68777,138.91254,103.32839,138.99066 L102.62527,138.53754 L103.06277,133.14691 L108.78152,133.14691 L108.78152,134.42816 L104.25027,134.42816 L103.98464,137.74066 Q104.25027,137.69379,104.71902,137.63129 Q105.18777,137.55316,105.75027,137.55316 Z" fill="black"/>
</a>
</g>
</g>
<g class="node" id="node-1">
<title>Organization: FinSure Capital
License: NOASSERTION</title>
<g id="a-node-1">
<a title="Organization: FinSure Capital
License: NOASSERTION" xlink:title="Organization: FinSure Capital
License: NOASSERTION">
<rect fill="#E0E0E0" height="59.584" stroke="black" stroke-width="1" width="235.37604" x="10" y="332.7216"/>
<path d="M26.609375,349.10684 Q28.171875,349.10684,28.921875,349.79434 Q29.6875,350.48184,29.6875,351.98184 L29.6875,357.8256 L28.65625,357.8256 L28.390625,356.60684 L28.3125,356.60684 Q27.953125,357.0756,27.5625,357.3881 Q27.171875,357.7006,26.65625,357.84122 Q26.15625,357.98184,25.4375,357.98184 Q24.671875,357.98184,24.046875,357.71622 Q23.4375,357.43497,23.078125,356.87247 Q22.734375,356.30997,22.734375,355.43497 Q22.734375,354.16934,23.734375,353.46622 Q24.75,352.7631,26.84375,352.7006 L28.296875,352.65372 L28.296875,352.1381 Q28.296875,351.0756,27.828125,350.66934 Q27.375,350.24747,26.53125,350.24747 Q25.859375,350.24747,25.25,350.4506 Q24.640625,350.6381,24.109375,350.90372 L23.6875,349.84122 Q24.234375,349.54434,25,349.3256 Q25.78125,349.10684,26.609375,349.10684 ZM27.03125,353.68497 Q25.421875,353.74747,24.796875,354.2006 Q24.1875,354.6381,24.1875,355.4506 Q24.1875,356.18497,24.625,356.52872 Q25.078125,356.85684,25.765625,356.85684 Q26.84375,356.85684,27.5625,356.2631 Q28.28125,355.65372,28.28125,354.40372 L28.28125,353.6381 ZM36.4135,349.09122 Q38.00725,349.09122,38.960377,350.2006 Q39.929127,351.29434,39.929127,353.52872 Q39.929127,354.98184,39.491627,355.98184 Q39.054127,356.98184,38.25725,357.48184 Q37.476,357.98184,36.397877,357.98184 Q35.741627,357.98184,35.226,357.80997 Q34.726,357.6381,34.366627,357.35684 Q34.00725,357.0756,33.741627,356.73184 L33.647877,356.73184 Q33.679127,357.0131,33.710377,357.43497 Q33.741627,357.84122,33.741627,358.1381 L33.741627,361.66934 L32.335377,361.66934 L32.335377,349.24747 L33.491627,349.24747 L33.679127,350.41934 L33.741627,350.41934 Q34.00725,350.04434,34.366627,349.74747 Q34.726,349.43497,35.226,349.2631 Q35.726,349.09122,36.4135,349.09122 ZM36.1635,350.27872 Q35.2885,350.27872,34.75725,350.60684 Q34.241627,350.93497,33.991627,351.59122 Q33.75725,352.24747,33.741627,353.24747 L33.741627,353.52872 Q33.741627,354.5756,33.960377,355.30997 Q34.19475,356.04434,34.726,356.43497 Q35.25725,356.80997,36.19475,356.80997 Q36.976,356.80997,37.476,356.3881 Q37.991627,355.9506,38.226,355.21622 Q38.476,354.46622,38.476,353.5131 Q38.476,352.02872,37.9135,351.15372 Q37.351,350.27872,36.1635,350.27872 ZM46.2535,349.09122 Q47.84725,349.09122,48.800377,350.2006 Q49.769127,351.29434,49.769127,353.52872 Q49.769127,354.98184,49.331627,355.98184 Q48.894127,356.98184,48.09725,357.48184 Q47.316,357.98184,46.237877,357.98184 Q45.581627,357.98184,45.066,357.80997 Q44.566,357.6381,44.206627,357.35684 Q43.84725,357.0756,43.581627,356.73184 L43.487877,356.73184 Q43.519127,357.0131,43.550377,357.43497 Q43.581627,357.84122,43.581627,358.1381 L43.581627,361.66934 L42.175377,361.66934 L42.175377,349.24747 L43.331627,349.24747 L43.519127,350.41934 L43.581627,350.41934 Q43.84725,350.04434,44.206627,349.74747 Q44.566,349.43497,45.066,349.2631 Q45.566,349.09122,46.2535,349.09122 ZM46.0035,350.27872 Q45.1285,350.27872,44.59725,350.60684 Q44.081627,350.93497,43.831627,351.59122 Q43.59725,352.24747,43.581627,353.24747 L43.581627,353.52872 Q43.581627,354.5756,43.800377,355.30997 Q44.03475,356.04434,44.566,356.43497 Q45.09725,356.80997,46.03475,356.80997 Q46.816,356.80997,47.316,356.3881 Q47.831627,355.9506,48.066,355.21622 Q48.316,354.46622,48.316,353.5131 Q48.316,352.02872,47.7535,351.15372 Q47.191,350.27872,46.0035,350.27872 ZM53.421627,357.8256 L52.015377,357.8256 L52.015377,345.66934 L53.421627,345.66934 ZM57.54963,349.24747 L57.54963,357.8256 L56.14338,357.8256 L56.14338,349.24747 ZM56.86213,346.02872 Q57.190254,346.02872,57.42463,346.24747 Q57.67463,346.46622,57.67463,346.93497 Q57.67463,347.37247,57.42463,347.60684 Q57.190254,347.8256,56.86213,347.8256 Q56.51838,347.8256,56.26838,347.60684 Q56.034004,347.37247,56.034004,346.93497 Q56.034004,346.46622,56.26838,346.24747 Q56.51838,346.02872,56.86213,346.02872 ZM63.708878,357.98184 Q62.568253,357.98184,61.677628,357.52872 Q60.802628,357.05997,60.287003,356.09122 Q59.787003,355.10684,59.787003,353.59122 Q59.787003,351.99747,60.318253,351.0131 Q60.849503,350.0131,61.755753,349.55997 Q62.662003,349.09122,63.802628,349.09122 Q64.45888,349.09122,65.06825,349.23184 Q65.67763,349.35684,66.06825,349.55997 L65.63075,350.71622 Q65.25575,350.5756,64.74013,350.4506 Q64.2245,350.3256,63.771378,350.3256 Q62.912003,350.3256,62.349503,350.7006 Q61.787003,351.05997,61.521378,351.77872 Q61.255753,352.49747,61.255753,353.5756 Q61.255753,354.59122,61.521378,355.30997 Q61.787003,356.02872,62.333878,356.40372 Q62.880753,356.7631,63.693253,356.7631 Q64.39638,356.7631,64.92763,356.62247 Q65.4745,356.48184,65.92763,356.27872 L65.92763,357.52872 Q65.49013,357.74747,64.95888,357.85684 Q64.44325,357.98184,63.708878,357.98184 ZM71.20138,349.10684 Q72.76388,349.10684,73.51388,349.79434 Q74.2795,350.48184,74.2795,351.98184 L74.2795,357.8256 L73.24825,357.8256 L72.98263,356.60684 L72.9045,356.60684 Q72.54513,357.0756,72.1545,357.3881 Q71.76388,357.7006,71.24825,357.84122 Q70.74825,357.98184,70.0295,357.98184 Q69.26388,357.98184,68.63888,357.71622 Q68.0295,357.43497,67.67013,356.87247 Q67.32638,356.30997,67.32638,355.43497 Q67.32638,354.16934,68.32638,353.46622 Q69.342,352.7631,71.43575,352.7006 L72.88888,352.65372 L72.88888,352.1381 Q72.88888,351.0756,72.42013,350.66934 Q71.967,350.24747,71.12325,350.24747 Q70.45138,350.24747,69.842,350.4506 Q69.23263,350.6381,68.70138,350.90372 L68.2795,349.84122 Q68.82638,349.54434,69.592,349.3256 Q70.37325,349.10684,71.20138,349.10684 ZM71.62325,353.68497 Q70.01388,353.74747,69.38888,354.2006 Q68.7795,354.6381,68.7795,355.4506 Q68.7795,356.18497,69.217,356.52872 Q69.67013,356.85684,70.35763,356.85684 Q71.43575,356.85684,72.1545,356.2631 Q72.87325,355.65372,72.87325,354.40372 L72.87325,353.6381 ZM81.052376,349.09122 Q82.59925,349.09122,83.3805,349.84122 Q84.16175,350.5756,84.16175,352.24747 L84.16175,357.8256 L82.771126,357.8256 L82.771126,352.34122 Q82.771126,351.29434,82.302376,350.79434 Q81.833626,350.27872,80.84925,350.27872 Q79.427376,350.27872,78.8805,351.0756 Q78.333626,351.87247,78.333626,353.37247 L78.333626,357.8256 L76.927376,357.8256 L76.927376,349.24747 L78.068,349.24747 L78.271126,350.41934 L78.34925,350.41934 Q78.646126,349.96622,79.068,349.66934 Q79.489876,349.37247,79.989876,349.23184 Q80.5055,349.09122,81.052376,349.09122 ZM89.67475,356.84122 Q90.00288,356.84122,90.331,356.77872 Q90.67475,356.71622,90.87788,356.65372 L90.87788,357.73184 Q90.65913,357.84122,90.23725,357.90372 Q89.831,357.98184,89.44038,357.98184 Q88.7685,357.98184,88.19038,357.7631 Q87.62788,357.52872,87.2685,356.9506 Q86.92475,356.37247,86.92475,355.3256 L86.92475,350.34122 L85.706,350.34122 L85.706,349.66934 L86.94038,349.10684 L87.50288,347.27872 L88.331,347.27872 L88.331,349.24747 L90.81538,349.24747 L90.81538,350.34122 L88.331,350.34122 L88.331,355.29434 Q88.331,356.0756,88.706,356.46622 Q89.081,356.84122,89.67475,356.84122 ZM91.87263,354.16934 L91.87263,352.91934 L95.74763,352.91934 L95.74763,354.16934 ZM99.634,357.8256 L96.384,349.24747 L97.884,349.24747 L99.71213,354.30997 Q99.83713,354.65372,99.97775,355.09122 Q100.134,355.52872,100.24338,355.91934 Q100.35275,356.30997,100.39963,356.5756 L100.46213,356.5756 Q100.52463,356.30997,100.64963,355.91934 Q100.77463,355.5131,100.91525,355.0756 Q101.0715,354.6381,101.18088,354.30997 L103.009,349.24747 L104.509,349.24747 L101.24338,357.8256 ZM109.121376,349.10684 Q110.683876,349.10684,111.433876,349.79434 Q112.1995,350.48184,112.1995,351.98184 L112.1995,357.8256 L111.16825,357.8256 L110.902626,356.60684 L110.8245,356.60684 Q110.465126,357.0756,110.0745,357.3881 Q109.683876,357.7006,109.16825,357.84122 Q108.66825,357.98184,107.9495,357.98184 Q107.183876,357.98184,106.558876,357.71622 Q105.9495,357.43497,105.590126,356.87247 Q105.246376,356.30997,105.246376,355.43497 Q105.246376,354.16934,106.246376,353.46622 Q107.262,352.7631,109.35575,352.7006 L110.808876,352.65372 L110.808876,352.1381 Q110.808876,351.0756,110.340126,350.66934 Q109.887,350.24747,109.04325,350.24747 Q108.371376,350.24747,107.762,350.4506 Q107.152626,350.6381,106.621376,350.90372 L106.1995,349.84122 Q106.746376,349.54434,107.512,349.3256 Q108.29325,349.10684,109.121376,349.10684 ZM109.54325,353.68497 Q107.933876,353.74747,107.308876,354.2006 Q106.6995,354.6381,106.6995,355.4506 Q106.6995,356.18497,107.137,356.52872 Q107.590126,356.85684,108.277626,356.85684 Q109.35575,356.85684,110.0745,356.2631 Q110.79325,355.65372,110.79325,354.40372 L110.79325,353.6381 ZM116.253624,357.8256 L114.847374,357.8256 L114.847374,345.66934 L116.253624,345.66934 ZM120.38162,349.24747 L120.38162,357.8256 L118.97537,357.8256 L118.97537,349.24747 ZM119.69412,346.02872 Q120.02225,346.02872,120.25662,346.24747 Q120.50662,346.46622,120.50662,346.93497 Q120.50662,347.37247,120.25662,347.60684 Q120.02225,347.8256,119.69412,347.8256 Q119.35037,347.8256,119.10037,347.60684 Q118.866,347.37247,118.866,346.93497 Q118.866,346.46622,119.10037,346.24747 Q119.35037,346.02872,119.69412,346.02872 ZM126.150246,357.98184 Q124.54087,357.98184,123.57212,356.87247 Q122.618996,355.7631,122.618996,353.55997 Q122.618996,351.34122,123.587746,350.21622 Q124.556496,349.09122,126.16587,349.09122 Q126.837746,349.09122,127.32212,349.2631 Q127.82212,349.41934,128.18149,349.71622 Q128.55649,349.99747,128.82211,350.35684 L128.91586,350.35684 Q128.90024,350.1381,128.85336,349.73184 Q128.82211,349.3256,128.82211,349.09122 L128.82211,345.66934 L130.22836,345.66934 L130.22836,357.8256 L129.08774,357.8256 L128.88461,356.66934 L128.82211,356.66934 Q128.55649,357.04434,128.18149,357.34122 Q127.82212,357.6381,127.32212,357.80997 Q126.82212,357.98184,126.150246,357.98184 ZM126.368996,356.80997 Q127.72837,356.80997,128.27524,356.0756 Q128.83774,355.3256,128.83774,353.8256 L128.83774,353.5756 Q128.83774,351.96622,128.30649,351.12247 Q127.775246,350.2631,126.35337,350.2631 Q125.212746,350.2631,124.650246,351.16934 Q124.087746,352.05997,124.087746,353.59122 Q124.087746,355.12247,124.650246,355.96622 Q125.212746,356.80997,126.368996,356.80997 ZM136.19337,349.10684 Q137.75587,349.10684,138.50587,349.79434 Q139.2715,350.48184,139.2715,351.98184 L139.2715,357.8256 L138.24025,357.8256 L137.97462,356.60684 L137.8965,356.60684 Q137.53712,357.0756,137.1465,357.3881 Q136.75587,357.7006,136.24025,357.84122 Q135.74025,357.98184,135.0215,357.98184 Q134.25587,357.98184,133.63087,357.71622 Q133.0215,357.43497,132.66212,356.87247 Q132.31837,356.30997,132.31837,355.43497 Q132.31837,354.16934,133.31837,353.46622 Q134.334,352.7631,136.42775,352.7006 L137.88087,352.65372 L137.88087,352.1381 Q137.88087,351.0756,137.41212,350.66934 Q136.959,350.24747,136.11525,350.24747 Q135.44337,350.24747,134.834,350.4506 Q134.22462,350.6381,133.69337,350.90372 L133.2715,349.84122 Q133.81837,349.54434,134.584,349.3256 Q135.36525,349.10684,136.19337,349.10684 ZM136.61525,353.68497 Q135.00587,353.74747,134.38087,354.2006 Q133.7715,354.6381,133.7715,355.4506 Q133.7715,356.18497,134.209,356.52872 Q134.66212,356.85684,135.34962,356.85684 Q136.42775,356.85684,137.1465,356.2631 Q137.86525,355.65372,137.86525,354.40372 L137.86525,353.6381 ZM144.77875,356.84122 Q145.10687,356.84122,145.435,356.77872 Q145.77875,356.71622,145.98187,356.65372 L145.98187,357.73184 Q145.76312,357.84122,145.34125,357.90372 Q144.935,357.98184,144.54437,357.98184 Q143.8725,357.98184,143.29437,357.7631 Q142.73187,357.52872,142.3725,356.9506 Q142.02875,356.37247,142.02875,355.3256 L142.02875,350.34122 L140.81,350.34122 L140.81,349.66934 L142.04437,349.10684 L142.60687,347.27872 L143.435,347.27872 L143.435,349.24747 L145.91937,349.24747 L145.91937,350.34122 L143.435,350.34122 L143.435,355.29434 Q143.435,356.0756,143.81,356.46622 Q144.185,356.84122,144.77875,356.84122 ZM155.1485,353.52872 Q155.1485,354.59122,154.86725,355.41934 Q154.586,356.24747,154.07037,356.8256 Q153.55475,357.3881,152.80475,357.68497 Q152.07037,357.98184,151.1485,357.98184 Q150.30475,357.98184,149.586,357.68497 Q148.86725,357.3881,148.336,356.8256 Q147.80475,356.24747,147.50787,355.41934 Q147.211,354.59122,147.211,353.52872 Q147.211,352.09122,147.69537,351.10684 Q148.17975,350.12247,149.07037,349.60684 Q149.961,349.09122,151.19537,349.09122 Q152.36725,349.09122,153.25787,349.60684 Q154.1485,350.12247,154.6485,351.10684 Q155.1485,352.09122,155.1485,353.52872 ZM148.67975,353.52872 Q148.67975,354.52872,148.92975,355.27872 Q149.19537,356.0131,149.75787,356.41934 Q150.32037,356.80997,151.17975,356.80997 Q152.05475,356.80997,152.60162,356.41934 Q153.16412,356.0131,153.42975,355.27872 Q153.69537,354.52872,153.69537,353.52872 Q153.69537,352.49747,153.41412,351.77872 Q153.1485,351.05997,152.60162,350.66934 Q152.05475,350.27872,151.16412,350.27872 Q149.85162,350.27872,149.25787,351.1381 Q148.67975,351.99747,148.67975,353.52872 ZM161.37537,349.09122 Q161.60974,349.09122,161.89099,349.12247 Q162.17224,349.1381,162.39099,349.18497 L162.20349,350.48184 Q162.00037,350.43497,161.75037,350.40372 Q161.50037,350.37247,161.28162,350.37247 Q160.78162,350.37247,160.32849,350.5756 Q159.89099,350.77872,159.53162,351.16934 Q159.18787,351.54434,158.98474,352.0756 Q158.78162,352.59122,158.78162,353.24747 L158.78162,357.8256 L157.37537,357.8256 L157.37537,349.24747 L158.53162,349.24747 L158.68787,350.80997 L158.75037,350.80997 Q159.03162,350.34122,159.40662,349.9506 Q159.79724,349.55997,160.28162,349.3256 Q160.78162,349.09122,161.37537,349.09122 ZM170.034,357.8256 L166.784,349.24747 L168.284,349.24747 L170.11212,354.30997 Q170.23712,354.65372,170.37775,355.09122 Q170.534,355.52872,170.64337,355.91934 Q170.75275,356.30997,170.79962,356.5756 L170.86212,356.5756 Q170.92462,356.30997,171.04962,355.91934 Q171.17462,355.5131,171.31525,355.0756 Q171.4715,354.6381,171.58087,354.30997 L173.409,349.24747 L174.909,349.24747 L171.64337,357.8256 ZM178.162,357.8256 L174.912,349.24747 L176.412,349.24747 L178.24013,354.30997 Q178.36513,354.65372,178.50575,355.09122 Q178.662,355.52872,178.77138,355.91934 Q178.88075,356.30997,178.92763,356.5756 L178.99013,356.5756 Q179.05263,356.30997,179.17763,355.91934 Q179.30263,355.5131,179.44325,355.0756 Q179.5995,354.6381,179.70888,354.30997 L181.537,349.24747 L183.037,349.24747 L179.77138,357.8256 ZM191.41501,352.09122 Q191.41501,353.48184,191.19626,354.5756 Q190.99313,355.66934,190.54001,356.43497 Q190.08688,357.18497,189.35251,357.59122 Q188.61813,357.98184,187.60251,357.98184 Q186.32126,357.98184,185.47751,357.27872 Q184.63376,356.5756,184.22751,355.2631 Q183.82126,353.93497,183.82126,352.09122 Q183.82126,350.24747,184.19626,348.93497 Q184.57126,347.62247,185.39938,346.93497 Q186.24313,346.23184,187.60251,346.23184 Q188.88376,346.23184,189.72751,346.93497 Q190.57126,347.62247,190.99313,348.93497 Q191.41501,350.24747,191.41501,352.09122 ZM185.22751,352.09122 Q185.22751,353.66934,185.46188,354.71622 Q185.69626,355.74747,186.21188,356.2631 Q186.74313,356.77872,187.60251,356.77872 Q188.46188,356.77872,188.97751,356.27872 Q189.50876,355.7631,189.74313,354.71622 Q189.97751,353.66934,189.97751,352.09122 Q189.97751,350.52872,189.74313,349.49747 Q189.50876,348.46622,188.97751,347.9506 Q188.46188,347.41934,187.60251,347.41934 Q186.74313,347.41934,186.21188,347.9506 Q185.69626,348.46622,185.46188,349.49747 Q185.22751,350.52872,185.22751,352.09122 ZM193.34827,356.96622 Q193.34827,356.37247,193.62952,356.1381 Q193.92639,355.8881,194.31702,355.8881 Q194.73889,355.8881,195.03577,356.1381 Q195.33264,356.37247,195.33264,356.96622 Q195.33264,357.54434,195.03577,357.79434 Q194.73889,358.04434,194.31702,358.04434 Q193.92639,358.04434,193.62952,357.79434 Q193.34827,357.54434,193.34827,356.96622 ZM202.16751,357.8256 L200.77689,357.8256 L200.77689,349.84122 Q200.77689,349.37247,200.77689,349.05997 Q200.79251,348.73184,200.80814,348.46622 Q200.83939,348.18497,200.85501,347.87247 Q200.58939,348.12247,200.38626,348.30997 Q200.18314,348.48184,199.85501,348.74747 L198.63626,349.74747 L197.90189,348.79434 L200.99564,346.40372 L202.16751,346.40372 ZM206.78827,356.96622 Q206.78827,356.37247,207.06952,356.1381 Q207.3664,355.8881,207.75702,355.8881 Q208.1789,355.8881,208.47577,356.1381 Q208.77264,356.37247,208.77264,356.96622 Q208.77264,357.54434,208.47577,357.79434 Q208.1789,358.04434,207.75702,358.04434 Q207.3664,358.04434,207.06952,357.79434 Q206.78827,357.54434,206.78827,356.96622 ZM218.29501,352.09122 Q218.29501,353.48184,218.07626,354.5756 Q217.87314,355.66934,217.42001,356.43497 Q216.96689,357.18497,216.23251,357.59122 Q215.49814,357.98184,214.48251,357.98184 Q213.20126,357.98184,212.35751,357.27872 Q211.51376,356.5756,211.10751,355.2631 Q210.70126,353.93497,210.70126,352.09122 Q210.70126,350.24747,211.07626,348.93497 Q211.45126,347.62247,212.27939,346.93497 Q213.12314,346.23184,214.48251,346.23184 Q215.76376,346.23184,216.60751,346.93497 Q217.45126,347.62247,217.87314,348.93497 Q218.29501,350.24747,218.29501,352.09122 ZM212.10751,352.09122 Q212.10751,353.66934,212.34189,354.71622 Q212.57626,355.74747,213.09189,356.2631 Q213.62314,356.77872,214.48251,356.77872 Q215.34189,356.77872,215.85751,356.27872 Q216.38876,355.7631,216.62314,354.71622 Q216.85751,353.66934,216.85751,352.09122 Q216.85751,350.52872,216.62314,349.49747 Q216.38876,348.46622,215.85751,347.9506 Q215.34189,347.41934,214.48251,347.41934 Q213.62314,347.41934,213.09189,347.9506 Q212.57626,348.46622,212.34189,349.49747 Q212.10751,350.52872,212.10751,352.09122 ZM219.71265,354.16934 L219.71265,352.91934 L223.58765,352.91934 L223.58765,354.16934 ZM229.91153,357.8256 L228.5209,357.8256 L228.5209,349.84122 Q228.5209,349.37247,228.5209,349.05997 Q228.53653,348.73184,228.55215,348.46622 Q228.5834,348.18497,228.59903,347.87247 Q228.3334,348.12247,228.13028,348.30997 Q227.92715,348.48184,227.59903,348.74747 L226.38028,349.74747 L225.6459,348.79434 L228.73965,346.40372 L229.91153,346.40372 ZM26.40625,372.60196 Q27.5625,372.60196,28.421875,373.0082 Q29.296875,373.41446,29.765625,374.16446 Q30.234375,374.89883,30.234375,375.97696 Q30.234375,377.14883,29.71875,378.0082 Q29.21875,378.86758,28.265625,379.3207 Q27.3125,379.77383,25.96875,379.77383 Q25.09375,379.77383,24.3125,379.61758 Q23.53125,379.46133,23.015625,379.14883 L23.015625,377.8207 Q23.578125,378.18008,24.40625,378.3832 Q25.234375,378.5707,25.984375,378.5707 Q26.828125,378.5707,27.453125,378.3207 Q28.09375,378.05508,28.4375,377.5082 Q28.796875,376.9457,28.796875,376.11758 Q28.796875,374.99258,28.109375,374.39883 Q27.421875,373.78946,25.9375,373.78946 Q25.484375,373.78946,24.90625,373.8832 Q24.34375,373.96133,23.984375,374.03946 L23.28125,373.58633 L23.71875,368.1957 L29.4375,368.1957 L29.4375,369.47696 L24.90625,369.47696 L24.640625,372.78946 Q24.90625,372.74258,25.375,372.68008 Q25.84375,372.60196,26.40625,372.60196 ZM31.792625,375.96133 L31.792625,374.71133 L35.667625,374.71133 L35.667625,375.96133 ZM40.71025,370.8832 Q41.554,370.8832,42.225876,371.21133 Q42.913376,371.52383,43.39775,372.18008 L43.475876,372.18008 L43.663376,371.03946 L44.788376,371.03946 L44.788376,379.7582 Q44.788376,380.97696,44.3665,381.80508 Q43.944626,382.6332,43.100876,383.03946 Q42.257126,383.46133,40.944626,383.46133 Q40.02275,383.46133,39.2415,383.3207 Q38.46025,383.18008,37.850876,382.91446 L37.850876,381.61758 Q38.46025,381.93008,39.27275,382.10196 Q40.100876,382.28946,41.02275,382.28946 Q42.132126,382.28946,42.757126,381.6332 Q43.39775,380.99258,43.39775,379.86758 L43.39775,379.53946 Q43.39775,379.35196,43.413376,378.99258 Q43.429,378.6332,43.444626,378.47696 L43.382126,378.47696 Q42.929,379.1332,42.257126,379.46133 Q41.600876,379.77383,40.725876,379.77383 Q39.054,379.77383,38.1165,378.61758 Q37.179,377.4457,37.179,375.35196 Q37.179,373.30508,38.1165,372.10196 Q39.054,370.8832,40.71025,370.8832 ZM40.89775,372.0707 Q40.179,372.0707,39.663376,372.46133 Q39.163376,372.83633,38.89775,373.5707 Q38.64775,374.30508,38.64775,375.36758 Q38.64775,376.9457,39.225876,377.78946 Q39.804,378.6332,40.929,378.6332 Q41.58525,378.6332,42.038376,378.46133 Q42.507126,378.28946,42.804,377.93008 Q43.1165,377.5707,43.257126,377.0082 Q43.413376,376.4457,43.413376,375.68008 L43.413376,375.35196 Q43.413376,374.18008,43.14775,373.46133 Q42.882126,372.74258,42.319626,372.41446 Q41.757126,372.0707,40.89775,372.0707 ZM54.4565,379.61758 L46.909626,379.61758 L46.909626,378.4457 L49.909626,375.43008 Q50.769,374.55508,51.36275,373.8832 Q51.9565,373.21133,52.253376,372.5707 Q52.565876,371.91446,52.565876,371.14883 Q52.565876,370.21133,52.003376,369.72696 Q51.440876,369.22696,50.55025,369.22696 Q49.7065,369.22696,49.065876,369.52383 Q48.440876,369.80508,47.784626,370.3207 L47.034626,369.3832 Q47.48775,368.99258,48.019,368.6957 Q48.565876,368.3832,49.190876,368.21133 Q49.8315,368.03946,50.55025,368.03946 Q51.61275,368.03946,52.378376,368.41446 Q53.159626,368.77383,53.5815,369.46133 Q54.003376,370.1332,54.003376,371.0707 Q54.003376,371.97696,53.628376,372.7582 Q53.269,373.53946,52.61275,374.30508 Q51.9565,375.05508,51.065876,375.91446 L48.690876,378.27383 L48.690876,378.33633 L54.4565,378.33633 ZM60.6085,372.1332 L58.45225,372.1332 L58.45225,379.61758 L57.046,379.61758 L57.046,372.1332 L55.530376,372.1332 L55.530376,371.47696 L57.046,370.99258 L57.046,370.49258 Q57.046,369.39883,57.374126,368.71133 Q57.70225,368.02383,58.311626,367.71133 Q58.936626,367.3832,59.82725,367.3832 Q60.342876,367.3832,60.76475,367.47696 Q61.186626,367.55508,61.4835,367.66446 L61.124126,368.77383 Q60.8585,368.6957,60.51475,368.61758 Q60.186626,368.52383,59.842876,368.52383 Q59.13975,368.52383,58.796,369.0082 Q58.45225,369.47696,58.45225,370.47696 L58.45225,371.03946 L60.6085,371.03946 ZM69.175,373.8832 Q69.175,375.27383,68.95625,376.36758 Q68.75313,377.46133,68.3,378.22696 Q67.84688,378.97696,67.1125,379.3832 Q66.37813,379.77383,65.3625,379.77383 Q64.08125,379.77383,63.237503,379.0707 Q62.393753,378.36758,61.987503,377.05508 Q61.581253,375.72696,61.581253,373.8832 Q61.581253,372.03946,61.956253,370.72696 Q62.331253,369.41446,63.159378,368.72696 Q64.00313,368.02383,65.3625,368.02383 Q66.64375,368.02383,67.4875,368.72696 Q68.33125,369.41446,68.75313,370.72696 Q69.175,372.03946,69.175,373.8832 ZM62.987503,373.8832 Q62.987503,375.46133,63.221878,376.5082 Q63.456253,377.53946,63.971878,378.05508 Q64.50313,378.5707,65.3625,378.5707 Q66.22188,378.5707,66.7375,378.0707 Q67.26875,377.55508,67.50313,376.5082 Q67.7375,375.46133,67.7375,373.8832 Q67.7375,372.3207,67.50313,371.28946 Q67.26875,370.2582,66.7375,369.74258 Q66.22188,369.21133,65.3625,369.21133 Q64.50313,369.21133,63.971878,369.74258 Q63.456253,370.2582,63.221878,371.28946 Q62.987503,372.3207,62.987503,373.8832 ZM74.62388,370.8832 Q75.73325,370.8832,76.5145,371.36758 Q77.31138,371.83633,77.73325,372.71133 Q78.15513,373.58633,78.15513,374.7582 L78.15513,375.60196 L72.29575,375.60196 Q72.327,377.05508,73.03013,377.8207 Q73.74888,378.5707,75.03013,378.5707 Q75.84263,378.5707,76.46763,378.43008 Q77.10825,378.27383,77.78013,377.99258 L77.78013,379.21133 Q77.12388,379.5082,76.48325,379.6332 Q75.84263,379.77383,74.96763,379.77383 Q73.74888,379.77383,72.81138,379.28946 Q71.87388,378.78946,71.34263,377.80508 Q70.827,376.8207,70.827,375.39883 Q70.827,373.99258,71.29575,372.99258 Q71.78013,371.97696,72.62388,371.43008 Q73.48325,370.8832,74.62388,370.8832 ZM74.60825,372.03946 Q73.59263,372.03946,73.0145,372.6957 Q72.43638,373.33633,72.327,374.47696 L76.68638,374.47696 Q76.68638,373.74258,76.452,373.21133 Q76.23325,372.66446,75.78013,372.35196 Q75.327,372.03946,74.60825,372.03946 ZM87.288506,373.0707 Q87.288506,374.05508,87.14788,375.02383 Q87.02288,375.99258,86.67913,376.85196 Q86.351006,377.6957,85.757256,378.36758 Q85.163506,379.02383,84.257256,379.39883 Q83.351006,379.77383,82.05413,379.77383 Q81.726006,379.77383,81.30413,379.72696 Q80.882256,379.6957,80.601006,379.61758 L80.601006,378.41446 Q80.89788,378.5082,81.27288,378.5707 Q81.663506,378.6332,82.02288,378.6332 Q83.132256,378.6332,83.851006,378.2582 Q84.58538,377.8832,85.02288,377.2582 Q85.46038,376.6332,85.64788,375.78946 Q85.83538,374.9457,85.86663,374.02383 L85.77288,374.02383 Q85.538506,374.3832,85.163506,374.6957 Q84.80413,374.99258,84.27288,375.18008 Q83.757256,375.35196,83.05413,375.35196 Q82.08538,375.35196,81.33538,374.9457 Q80.58538,374.52383,80.17913,373.7582 Q79.77288,372.99258,79.77288,371.8832 Q79.77288,370.6957,80.226006,369.83633 Q80.694756,368.96133,81.507256,368.5082 Q82.319756,368.03946,83.42913,368.03946 Q84.24163,368.03946,84.944756,368.35196 Q85.64788,368.66446,86.17913,369.28946 Q86.71038,369.89883,86.99163,370.85196 Q87.288506,371.78946,87.288506,373.0707 ZM83.42913,369.21133 Q82.42913,369.21133,81.788506,369.86758 Q81.163506,370.52383,81.163506,371.86758 Q81.163506,372.97696,81.694756,373.61758 Q82.24163,374.24258,83.36663,374.24258 Q84.132256,374.24258,84.67913,373.93008 Q85.24163,373.61758,85.55413,373.14883 Q85.86663,372.66446,85.86663,372.14883 Q85.86663,371.6332,85.71038,371.11758 Q85.569756,370.58633,85.257256,370.16446 Q84.96038,369.72696,84.49163,369.47696 Q84.038506,369.21133,83.42913,369.21133 ZM92.690506,368.03946 Q93.690506,368.03946,94.45613,368.35196 Q95.23738,368.66446,95.67488,369.27383 Q96.11238,369.86758,96.11238,370.77383 Q96.11238,371.46133,95.815506,371.97696 Q95.51863,372.47696,95.01863,372.86758 Q94.534256,373.2582,93.940506,373.5707 Q94.64363,373.89883,95.20613,374.33633 Q95.784256,374.7582,96.128006,375.3207 Q96.48738,375.86758,96.48738,376.66446 Q96.48738,377.61758,96.01863,378.3207 Q95.54988,379.0082,94.70613,379.39883 Q93.878006,379.77383,92.73738,379.77383 Q91.503006,379.77383,90.64363,379.41446 Q89.784256,379.03946,89.346756,378.36758 Q88.909256,377.68008,88.909256,376.71133 Q88.909256,375.91446,89.23738,375.35196 Q89.565506,374.77383,90.11238,374.35196 Q90.659256,373.93008,91.284256,373.64883 Q90.721756,373.33633,90.26863,372.93008 Q89.815506,372.5082,89.54988,371.99258 Q89.284256,371.46133,89.284256,370.7582 Q89.284256,369.86758,89.721756,369.27383 Q90.17488,368.68008,90.940506,368.36758 Q91.70613,368.03946,92.690506,368.03946 ZM90.284256,376.72696 Q90.284256,377.55508,90.878006,378.11758 Q91.471756,378.66446,92.70613,378.66446 Q93.878006,378.66446,94.48738,378.11758 Q95.096756,377.55508,95.096756,376.68008 Q95.096756,376.11758,94.79988,375.6957 Q94.51863,375.2582,93.971756,374.93008 Q93.440506,374.58633,92.70613,374.3207 L92.440506,374.22696 Q91.73738,374.52383,91.253006,374.8832 Q90.784256,375.22696,90.534256,375.68008 Q90.284256,376.1332,90.284256,376.72696 ZM92.67488,369.16446 Q91.784256,369.16446,91.221756,369.60196 Q90.659256,370.02383,90.659256,370.8207 Q90.659256,371.41446,90.940506,371.8207 Q91.221756,372.21133,91.690506,372.49258 Q92.17488,372.77383,92.753006,373.02383 Q93.315506,372.78946,93.753006,372.5082 Q94.190506,372.21133,94.45613,371.80508 Q94.721756,371.39883,94.721756,370.8207 Q94.721756,370.02383,94.159256,369.60196 Q93.596756,369.16446,92.67488,369.16446 ZM101.68626,372.60196 Q102.84251,372.60196,103.70188,373.0082 Q104.57688,373.41446,105.04563,374.16446 Q105.51438,374.89883,105.51438,375.97696 Q105.51438,377.14883,104.99876,378.0082 Q104.49876,378.86758,103.54563,379.3207 Q102.59251,379.77383,101.24876,379.77383 Q100.37376,379.77383,99.59251,379.61758 Q98.81126,379.46133,98.29563,379.14883 L98.29563,377.8207 Q98.85813,378.18008,99.68626,378.3832 Q100.51438,378.5707,101.26438,378.5707 Q102.10813,378.5707,102.73313,378.3207 Q103.37376,378.05508,103.71751,377.5082 Q104.07688,376.9457,104.07688,376.11758 Q104.07688,374.99258,103.38938,374.39883 Q102.70188,373.78946,101.21751,373.78946 Q100.76438,373.78946,100.18626,373.8832 Q99.62376,373.96133,99.26438,374.03946 L98.56126,373.58633 L98.99876,368.1957 L104.71751,368.1957 L104.71751,369.47696 L100.18626,369.47696 L99.92063,372.78946 Q100.18626,372.74258,100.65501,372.68008 Q101.12376,372.60196,101.68626,372.60196 Z" fill="black"/>
</a>
</g>
</g>
<g class="node" id="node-2">
<title>SHA256: 3262a8d87213c7ff21ca5a482c6f0aa449cef2edb6ca8b10334307de29dfdd67
SHA1: eca144ca434e006e01f92ceaf101e480e7b496eb</title>
<g id="a-node-2">
<a title="SHA256: 3262a8d87213c7ff21ca5a482c6f0aa449cef2edb6ca8b10334307de29dfdd67
SHA1: eca144ca434e006e01f92ceaf101e480e7b496eb" xlink:title="SHA256: 3262a8d87213c7ff21ca5a482c6f0aa449cef2edb6ca8b10334307de29dfdd67
SHA1: eca144ca434e006e01f92ceaf101e480e7b496eb">
<rect fill="#E0E0E0" height="37.792" stroke="black" stroke-width="1" width="124.976" x="65.20002" y="480.0976"/>
<path d="M79.965645,496.62347 L79.965645,505.2016 L78.559395,505.2016 L78.559395,496.62347 ZM79.278145,493.40472 Q79.60627,493.40472,79.840645,493.62347 Q80.090645,493.84222,80.090645,494.31097 Q80.090645,494.74847,79.840645,494.98285 Q79.60627,495.2016,79.278145,495.2016 Q78.934395,495.2016,78.684395,494.98285 Q78.45002,494.74847,78.45002,494.31097 Q78.45002,493.84222,78.684395,493.62347 Q78.934395,493.40472,79.278145,493.40472 ZM92.09364,496.46722 Q93.54677,496.46722,94.26552,497.21722 Q94.98427,497.9516,94.98427,499.62347 L94.98427,505.2016 L93.59364,505.2016 L93.59364,499.68597 Q93.59364,498.67035,93.17177,498.17035 Q92.74989,497.65472,91.85927,497.65472 Q90.60927,497.65472,90.06239,498.37347 Q89.53114,499.09222,89.53114,500.46722 L89.53114,505.2016 L88.14052,505.2016 L88.14052,499.68597 Q88.14052,499.0141,87.95302,498.56097 Q87.76552,498.09222,87.37489,497.87347 Q86.98427,497.65472,86.39052,497.65472 Q85.51552,497.65472,85.01552,498.0141 Q84.53114,498.37347,84.31239,499.06097 Q84.09364,499.74847,84.09364,500.74847 L84.09364,505.2016 L82.68739,505.2016 L82.68739,496.62347 L83.82802,496.62347 L84.03114,497.79535 L84.10927,497.79535 Q84.39052,497.34222,84.78114,497.04535 Q85.17177,496.74847,85.64052,496.60785 Q86.12489,496.46722,86.64052,496.46722 Q87.62489,496.46722,88.28114,496.8266 Q88.95302,497.17035,89.26552,497.90472 L89.34364,497.90472 Q89.78114,497.17035,90.51552,496.8266 Q91.26552,496.46722,92.09364,496.46722 ZM100.89739,496.48285 Q102.45989,496.48285,103.20989,497.17035 Q103.97552,497.85785,103.97552,499.35785 L103.97552,505.2016 L102.94427,505.2016 L102.67864,503.98285 L102.60052,503.98285 Q102.24114,504.4516,101.85052,504.7641 Q101.45989,505.0766,100.94427,505.21722 Q100.44427,505.35785,99.72552,505.35785 Q98.95989,505.35785,98.33489,505.09222 Q97.72552,504.81097,97.36614,504.24847 Q97.02239,503.68597,97.02239,502.81097 Q97.02239,501.54535,98.02239,500.84222 Q99.03802,500.1391,101.13177,500.0766 L102.58489,500.02972 L102.58489,499.5141 Q102.58489,498.4516,102.11614,498.04535 Q101.66302,497.62347,100.81927,497.62347 Q100.14739,497.62347,99.53802,497.8266 Q98.92864,498.0141,98.39739,498.27972 L97.97552,497.21722 Q98.52239,496.92035,99.28802,496.7016 Q100.06927,496.48285,100.89739,496.48285 ZM101.31927,501.06097 Q99.70989,501.12347,99.08489,501.5766 Q98.47552,502.0141,98.47552,502.8266 Q98.47552,503.56097,98.91302,503.90472 Q99.36614,504.23285,100.05364,504.23285 Q101.13177,504.23285,101.85052,503.6391 Q102.56927,503.02972,102.56927,501.77972 L102.56927,501.0141 ZM109.670265,496.46722 Q110.514015,496.46722,111.18589,496.79535 Q111.87339,497.10785,112.357765,497.7641 L112.43589,497.7641 L112.62339,496.62347 L113.74839,496.62347 L113.74839,505.34222 Q113.74839,506.56097,113.326515,507.3891 Q112.90464,508.21722,112.06089,508.62347 Q111.21714,509.04535,109.90464,509.04535 Q108.982765,509.04535,108.201515,508.90472 Q107.420265,508.7641,106.81089,508.49847 L106.81089,507.2016 Q107.420265,507.5141,108.232765,507.68597 Q109.06089,507.87347,109.982765,507.87347 Q111.09214,507.87347,111.71714,507.21722 Q112.357765,506.5766,112.357765,505.4516 L112.357765,505.12347 Q112.357765,504.93597,112.37339,504.5766 Q112.389015,504.21722,112.40464,504.06097 L112.34214,504.06097 Q111.889015,504.71722,111.21714,505.04535 Q110.56089,505.35785,109.68589,505.35785 Q108.014015,505.35785,107.076515,504.2016 Q106.139015,503.02972,106.139015,500.93597 Q106.139015,498.8891,107.076515,497.68597 Q108.014015,496.46722,109.670265,496.46722 ZM109.857765,497.65472 Q109.139015,497.65472,108.62339,498.04535 Q108.12339,498.42035,107.857765,499.15472 Q107.607765,499.8891,107.607765,500.9516 Q107.607765,502.52972,108.18589,503.37347 Q108.764015,504.21722,109.889015,504.21722 Q110.545265,504.21722,110.99839,504.04535 Q111.46714,503.87347,111.764015,503.5141 Q112.076515,503.15472,112.21714,502.59222 Q112.37339,502.02972,112.37339,501.2641 L112.37339,500.93597 Q112.37339,499.7641,112.107765,499.04535 Q111.84214,498.3266,111.27964,497.99847 Q110.71714,497.65472,109.857765,497.65472 ZM119.775894,496.46722 Q120.88527,496.46722,121.66652,496.9516 Q122.463394,497.42035,122.88527,498.29535 Q123.307144,499.17035,123.307144,500.34222 L123.307144,501.18597 L117.44777,501.18597 Q117.47902,502.6391,118.182144,503.40472 Q118.900894,504.15472,120.182144,504.15472 Q120.994644,504.15472,121.619644,504.0141 Q122.26027,503.85785,122.932144,503.5766 L122.932144,504.79535 Q122.275894,505.09222,121.63527,505.21722 Q120.994644,505.35785,120.119644,505.35785 Q118.900894,505.35785,117.963394,504.87347 Q117.025894,504.37347,116.494644,503.3891 Q115.97902,502.40472,115.97902,500.98285 Q115.97902,499.5766,116.44777,498.5766 Q116.932144,497.56097,117.775894,497.0141 Q118.63527,496.46722,119.775894,496.46722 ZM119.76027,497.62347 Q118.744644,497.62347,118.16652,498.27972 Q117.588394,498.92035,117.47902,500.06097 L121.838394,500.06097 Q121.838394,499.3266,121.60402,498.79535 Q121.38527,498.24847,120.932144,497.93597 Q120.47902,497.62347,119.76027,497.62347 ZM124.76865,501.54535 L124.76865,500.29535 L128.64365,500.29535 L128.64365,501.54535 ZM133.49878,504.21722 Q133.8269,504.21722,134.15503,504.15472 Q134.49878,504.09222,134.7019,504.02972 L134.7019,505.10785 Q134.48315,505.21722,134.06128,505.27972 Q133.65503,505.35785,133.2644,505.35785 Q132.59253,505.35785,132.0144,505.1391 Q131.4519,504.90472,131.09253,504.3266 Q130.74878,503.74847,130.74878,502.7016 L130.74878,497.71722 L129.53003,497.71722 L129.53003,497.04535 L130.7644,496.48285 L131.3269,494.65472 L132.15503,494.65472 L132.15503,496.62347 L134.6394,496.62347 L134.6394,497.71722 L132.15503,497.71722 L132.15503,502.67035 Q132.15503,503.4516,132.53003,503.84222 Q132.90503,504.21722,133.49878,504.21722 ZM139.6654,496.48285 Q141.2279,496.48285,141.9779,497.17035 Q142.74353,497.85785,142.74353,499.35785 L142.74353,505.2016 L141.71228,505.2016 L141.44666,503.98285 L141.36853,503.98285 Q141.00916,504.4516,140.61853,504.7641 Q140.2279,505.0766,139.71228,505.21722 Q139.21228,505.35785,138.49353,505.35785 Q137.7279,505.35785,137.1029,505.09222 Q136.49353,504.81097,136.13416,504.24847 Q135.7904,503.68597,135.7904,502.81097 Q135.7904,501.54535,136.7904,500.84222 Q137.80603,500.1391,139.89978,500.0766 L141.3529,500.02972 L141.3529,499.5141 Q141.3529,498.4516,140.88416,498.04535 Q140.43103,497.62347,139.58728,497.62347 Q138.9154,497.62347,138.30603,497.8266 Q137.69666,498.0141,137.1654,498.27972 L136.74353,497.21722 Q137.2904,496.92035,138.05603,496.7016 Q138.83728,496.48285,139.6654,496.48285 ZM140.08728,501.06097 Q138.4779,501.12347,137.8529,501.5766 Q137.24353,502.0141,137.24353,502.8266 Q137.24353,503.56097,137.68103,503.90472 Q138.13416,504.23285,138.82166,504.23285 Q139.89978,504.23285,140.61853,503.6391 Q141.33728,503.02972,141.33728,501.77972 L141.33728,501.0141 ZM148.43828,496.46722 Q149.28203,496.46722,149.9539,496.79535 Q150.6414,497.10785,151.12578,497.7641 L151.2039,497.7641 L151.3914,496.62347 L152.5164,496.62347 L152.5164,505.34222 Q152.5164,506.56097,152.09453,507.3891 Q151.67265,508.21722,150.8289,508.62347 Q149.98515,509.04535,148.67265,509.04535 Q147.75078,509.04535,146.96953,508.90472 Q146.18828,508.7641,145.5789,508.49847 L145.5789,507.2016 Q146.18828,507.5141,147.00078,507.68597 Q147.8289,507.87347,148.75078,507.87347 Q149.86015,507.87347,150.48515,507.21722 Q151.12578,506.5766,151.12578,505.4516 L151.12578,505.12347 Q151.12578,504.93597,151.1414,504.5766 Q151.15703,504.21722,151.17265,504.06097 L151.11015,504.06097 Q150.65703,504.71722,149.98515,505.04535 Q149.3289,505.35785,148.4539,505.35785 Q146.78203,505.35785,145.84453,504.2016 Q144.90703,503.02972,144.90703,500.93597 Q144.90703,498.8891,145.84453,497.68597 Q146.78203,496.46722,148.43828,496.46722 ZM148.62578,497.65472 Q147.90703,497.65472,147.3914,498.04535 Q146.8914,498.42035,146.62578,499.15472 Q146.37578,499.8891,146.37578,500.9516 Q146.37578,502.52972,146.9539,503.37347 Q147.53203,504.21722,148.65703,504.21722 Q149.31328,504.21722,149.7664,504.04535 Q150.23515,503.87347,150.53203,503.5141 Q150.84453,503.15472,150.98515,502.59222 Q151.1414,502.02972,151.1414,501.2641 L151.1414,500.93597 Q151.1414,499.7641,150.87578,499.04535 Q150.61015,498.3266,150.04765,497.99847 Q149.48515,497.65472,148.62578,497.65472 ZM155.02827,504.34222 Q155.02827,503.74847,155.30952,503.5141 Q155.6064,503.2641,155.99702,503.2641 Q156.4189,503.2641,156.71577,503.5141 Q157.01265,503.74847,157.01265,504.34222 Q157.01265,504.92035,156.71577,505.17035 Q156.4189,505.42035,155.99702,505.42035 Q155.6064,505.42035,155.30952,505.17035 Q155.02827,504.92035,155.02827,504.34222 ZM162.37877,504.21722 Q162.7069,504.21722,163.03502,504.15472 Q163.37877,504.09222,163.5819,504.02972 L163.5819,505.10785 Q163.36314,505.21722,162.94127,505.27972 Q162.53502,505.35785,162.1444,505.35785 Q161.47252,505.35785,160.8944,505.1391 Q160.3319,504.90472,159.97252,504.3266 Q159.62877,503.74847,159.62877,502.7016 L159.62877,497.71722 L158.41002,497.71722 L158.41002,497.04535 L159.6444,496.48285 L160.2069,494.65472 L161.03502,494.65472 L161.03502,496.62347 L163.5194,496.62347 L163.5194,497.71722 L161.03502,497.71722 L161.03502,502.67035 Q161.03502,503.4516,161.41002,503.84222 Q161.78502,504.21722,162.37877,504.21722 ZM167.32664,500.81097 L164.37352,496.62347 L165.96727,496.62347 L168.1704,499.85785 L170.37352,496.62347 L171.95164,496.62347 L168.99852,500.81097 L172.1079,505.2016 L170.51414,505.2016 L168.1704,501.77972 L165.81102,505.2016 L164.21727,505.2016 ZM176.61877,504.21722 Q176.9469,504.21722,177.27502,504.15472 Q177.61877,504.09222,177.8219,504.02972 L177.8219,505.10785 Q177.60315,505.21722,177.18127,505.27972 Q176.77502,505.35785,176.3844,505.35785 Q175.71252,505.35785,175.1344,505.1391 Q174.5719,504.90472,174.21252,504.3266 Q173.86877,503.74847,173.86877,502.7016 L173.86877,497.71722 L172.65002,497.71722 L172.65002,497.04535 L173.8844,496.48285 L174.4469,494.65472 L175.27502,494.65472 L175.27502,496.62347 L177.7594,496.62347 L177.7594,497.71722 L175.27502,497.71722 L175.27502,502.67035 Q175.27502,503.4516,175.65002,503.84222 Q176.02502,504.21722,176.61877,504.21722 Z" fill="black"/>
</a>
</g>
</g>
</svg>